<svg xmlns="http://www.w3.org/2000/svg" xmlns:xlink="http://www.w3.org/1999/xlink" width="750" zoomAndPan="magnify" viewBox="0 0 562.5 374.999991" height="500" preserveAspectRatio="xMidYMid meet" version="1.0"><path fill="#92e3a9" d="M 527.667969 143.742188 C 521.765625 122.476562 482.398438 145.605469 482.398438 145.605469 L 492.703125 126.921875 C 493.925781 125.066406 495.023438 123.105469 495.964844 121 C 501.136719 109.433594 501.070312 97.058594 495.9375 86.277344 C 494.527344 79.734375 490.253906 70.382812 478.464844 60.136719 C 456.15625 40.746094 381.363281 27.480469 359.714844 30.425781 C 338.0625 33.371094 379.394531 42.480469 379.394531 42.480469 L 376.121094 42.449219 C 313.0625 35.765625 249.613281 34.90625 186.664062 36.207031 C 170.878906 36.535156 155.042969 37.050781 139.589844 39.71875 C 135.140625 40.488281 130.359375 41.660156 127.710938 45.246094 C 115.960938 61.179688 164.03125 62.738281 171.570312 62.429688 C 138.554688 66.722656 101.867188 68.039062 71.160156 80.796875 C 66.875 82.578125 62.628906 84.6875 59.402344 87.984375 C 56.175781 91.277344 54.070312 95.949219 54.796875 100.648438 C 56.910156 114.285156 75.699219 118.324219 86.351562 121.351562 C 86.351562 121.351562 25.113281 162.070312 32.332031 182.738281 C 35.316406 191.285156 39.761719 200.277344 48 209.132812 C 43.304688 215.027344 39.167969 221.214844 35.972656 227.757812 C 34.015625 231.757812 31.453125 237.242188 33.644531 241.847656 C 44.796875 265.320312 213.941406 345.898438 349.484375 322.898438 C 385.492188 316.789062 421.351562 306.6875 452.914062 288.820312 C 484.328125 271.039062 516.335938 241.667969 524.25 204.632812 C 524.507812 203.414062 524.699219 202.230469 524.832031 201.078125 C 529.742188 184.011719 532.609375 161.53125 527.667969 143.742188 Z M 527.667969 143.742188 " fill-opacity="1" fill-rule="nonzero"/><path fill="#ffffff" d="M 527.667969 143.742188 C 521.765625 122.476562 482.398438 145.605469 482.398438 145.605469 L 492.703125 126.921875 C 493.925781 125.066406 495.023438 123.105469 495.964844 121 C 501.136719 109.433594 501.070312 97.058594 495.9375 86.277344 C 494.527344 79.734375 490.253906 70.382812 478.464844 60.136719 C 456.15625 40.746094 381.363281 27.480469 359.714844 30.425781 C 338.0625 33.371094 379.394531 42.480469 379.394531 42.480469 L 376.121094 42.449219 C 313.0625 35.765625 249.613281 34.90625 186.664062 36.207031 C 170.878906 36.535156 155.042969 37.050781 139.589844 39.71875 C 135.140625 40.488281 130.359375 41.660156 127.710938 45.246094 C 115.960938 61.179688 164.03125 62.738281 171.570312 62.429688 C 138.554688 66.722656 101.867188 68.039062 71.160156 80.796875 C 66.875 82.578125 62.628906 84.6875 59.402344 87.984375 C 56.175781 91.277344 54.910156 95.894531 54.796875 100.648438 C 54.5 113.21875 74.703125 117.886719 86.351562 121.351562 C 86.351562 121.351562 25.113281 162.070312 32.332031 182.738281 C 35.316406 191.285156 39.761719 200.277344 48 209.132812 C 43.304688 215.027344 39.167969 221.214844 35.972656 227.757812 C 34.015625 231.757812 31.453125 237.242188 33.644531 241.847656 C 44.796875 265.320312 213.941406 345.898438 349.484375 322.898438 C 385.492188 316.789062 421.351562 306.6875 452.914062 288.820312 C 484.328125 271.039062 516.335938 241.667969 524.25 204.632812 C 524.507812 203.414062 524.699219 202.230469 524.832031 201.078125 C 529.742188 184.011719 532.609375 161.53125 527.667969 143.742188 Z M 527.667969 143.742188 " fill-opacity="0.8" fill-rule="nonzero"/><path stroke-linecap="butt" transform="matrix(0.749334, 0, 0, 0.749334, 0, 0.166514)" fill="none" stroke-linejoin="miter" d="M 557.959088 160.592485 C 557.959088 160.592485 558.980829 157.532476 564.079107 156.510735 C 569.182598 155.494207 575.30783 161.103355 575.30783 161.103355 C 575.30783 161.103355 579.38958 152.939855 583.47133 152.428985 C 587.55308 151.923327 592.140488 155.494207 592.140488 155.494207 " stroke="#263238" stroke-width="1" stroke-opacity="1" stroke-miterlimit="10"/><path stroke-linecap="butt" transform="matrix(0.749334, 0, 0, 0.749334, 0, 0.166514)" fill="none" stroke-linejoin="miter" d="M 544.692097 179.984708 C 544.692097 179.984708 545.713838 176.919486 550.817329 175.902958 C 555.915606 174.881217 562.040838 180.495578 562.040838 180.495578 C 562.040838 180.495578 566.122588 172.332078 570.204339 171.821208 C 574.286089 171.310337 578.878709 174.881217 578.878709 174.881217 " stroke="#263238" stroke-width="1" stroke-opacity="1" stroke-miterlimit="10"/><path stroke-linecap="butt" transform="matrix(0.749334, 0, 0, 0.749334, 0, 0.166514)" fill="none" stroke-linejoin="miter" d="M 593.162228 180.104606 C 593.162228 180.104606 593.93896 177.774412 597.822618 176.99768 C 601.706275 176.220949 606.366664 180.495578 606.366664 180.495578 C 606.366664 180.495578 609.47359 174.276513 612.580516 173.890754 C 615.687442 173.504995 619.185341 176.220949 619.185341 176.220949 " stroke="#263238" stroke-width="1" stroke-opacity="1" stroke-miterlimit="10"/><path stroke-linecap="butt" transform="matrix(0.749334, 0, 0, 0.749334, 0, 0.166514)" fill="none" stroke-linejoin="miter" d="M 649.858416 200.648894 C 649.858416 200.648894 650.369286 199.121496 652.913212 198.610625 C 655.462351 198.099755 658.517148 200.899116 658.517148 200.899116 C 658.517148 200.899116 660.555416 196.827792 662.593685 196.572357 C 664.626741 196.316922 666.920444 198.099755 666.920444 198.099755 " stroke="#263238" stroke-width="1" stroke-opacity="1" stroke-miterlimit="10"/><path stroke-linecap="butt" transform="matrix(0.749334, 0, 0, 0.749334, 0, 0.166514)" fill="none" stroke-linejoin="miter" d="M 378.137923 155.186642 C 372.867617 131.498937 345.562116 113.847844 321.764939 117.231057 C 315.832587 118.075557 310.061837 120.291067 305.604753 124.393669 C 299.531651 129.981965 300.970429 136.331354 297.962549 143.259382 C 297.128475 145.182966 295.502031 146.887605 293.432484 147.242086 C 287.510558 148.258614 282.740697 142.35754 276.751002 142.315836 C 272.267854 142.284558 266.538807 144.755503 264.041798 148.628734 C 261.711603 152.230892 263.338048 158.517726 259.146826 160.910476 C 254.460372 163.584726 248.762603 158.496874 243.700816 160.33705 C 237.408769 162.625541 240.270686 167.202522 237.982195 170.064439 C 235.693704 172.921143 231.116723 171.779504 224.819463 171.206078 C 218.527417 170.632652 213.382222 178.07155 213.382222 178.07155 L 411.89186 178.07155 C 411.89186 178.07155 413.606925 175.209634 406.173239 163.772392 C 398.734341 152.329938 388.438738 160.33705 383.861757 160.33705 C 379.284775 160.33705 378.143136 155.197068 378.137923 155.186642 Z M 378.137923 155.186642 " stroke="#263238" stroke-width="1" stroke-opacity="1" stroke-miterlimit="10"/><path stroke-linecap="butt" transform="matrix(0.749334, 0, 0, 0.749334, 0, 0.166514)" fill="none" stroke-linejoin="miter" d="M 433.421398 117.142437 C 431.310148 107.639205 420.352499 100.560001 410.807563 101.915371 C 408.425239 102.254214 406.110684 103.145631 404.322637 104.787714 C 401.88297 107.034501 402.461609 109.578427 401.257415 112.356937 C 400.918572 113.128455 400.266952 113.816566 399.438091 113.957316 C 397.06098 114.363927 395.147822 111.997242 392.744646 111.981603 C 390.946174 111.965964 388.647257 112.96164 387.646368 114.50989 C 386.713248 115.959094 387.364868 118.482168 385.681081 119.441354 C 383.804414 120.515224 381.515923 118.471742 379.488081 119.211983 C 376.959793 120.129465 378.106645 121.964428 377.189164 123.11128 C 376.271682 124.258132 374.436719 123.799391 371.913645 123.57002 C 369.385358 123.34065 367.321025 126.322465 367.321025 126.322465 L 446.959463 126.322465 C 446.959463 126.322465 447.647574 125.175613 444.665759 120.588205 C 441.683944 115.995585 437.550065 119.211983 435.715101 119.211983 C 433.885351 119.211983 433.426611 117.14765 433.421398 117.142437 Z M 433.421398 117.142437 " stroke="#263238" stroke-width="1" stroke-opacity="1" stroke-miterlimit="10"/><path stroke-linecap="butt" transform="matrix(0.749334, 0, 0, 0.749334, 0, 0.166514)" fill="none" stroke-linejoin="miter" d="M 603.327507 233.600034 C 601.211044 224.096802 590.253395 217.017598 580.708459 218.372969 C 578.326135 218.711811 576.01158 219.603228 574.223533 221.245312 C 571.789079 223.492099 572.362505 226.036025 571.158311 228.814534 C 570.824681 229.586053 570.167848 230.274164 569.338987 230.414914 C 566.967088 230.821525 565.053931 228.45484 562.645542 228.439201 C 560.852283 228.423562 558.553366 229.419238 557.547264 230.967488 C 556.614144 232.411479 557.265764 234.934553 555.58719 235.898951 C 553.70531 236.967608 551.422032 234.92934 549.388977 235.669581 C 546.865902 236.587062 548.012754 238.422025 547.095273 239.568877 C 546.177791 240.715729 544.337615 240.256988 541.814541 240.027618 C 539.291467 239.798247 537.227133 242.780062 537.227133 242.780062 L 616.865572 242.780062 C 616.865572 242.780062 617.553683 241.633211 614.571868 237.045803 C 611.58484 232.453182 607.456173 235.669581 605.62121 235.669581 C 603.786247 235.669581 603.327507 233.605247 603.327507 233.600034 Z M 603.327507 233.600034 " stroke="#263238" stroke-width="1" stroke-opacity="1" stroke-miterlimit="10"/><path stroke-linecap="butt" transform="matrix(0.749334, 0, 0, 0.749334, 0, 0.166514)" fill="none" stroke-linejoin="miter" d="M 475.578631 223.200173 C 472.341381 208.64558 455.560852 197.797403 440.938491 199.877375 C 437.294629 200.393459 433.744601 201.759255 431.007796 204.277116 C 427.275314 207.712459 428.161518 211.611756 426.310916 215.870746 C 425.800046 217.054089 424.799157 218.101895 423.527194 218.320839 C 419.888545 218.946395 416.95886 215.318172 413.278508 215.292108 C 410.52085 215.271256 407.0021 216.793441 405.469489 219.170552 C 404.035924 221.386062 405.0316 225.248867 402.461609 226.718923 C 399.578841 228.361006 396.080942 225.238441 392.968803 226.364441 C 389.100785 227.771941 390.857553 230.586942 389.455266 232.34371 C 388.047766 234.100479 385.237979 233.396729 381.36996 233.04746 C 377.501942 232.692979 374.337673 237.264747 374.337673 237.264747 L 496.321011 237.264747 C 496.321011 237.264747 497.37403 235.507979 492.807474 228.475691 C 488.235706 221.443404 481.907168 226.364441 479.097381 226.364441 C 476.282381 226.364441 475.578631 223.205386 475.578631 223.200173 Z M 475.578631 223.200173 " stroke="#263238" stroke-width="1" stroke-opacity="1" stroke-miterlimit="10"/><path fill="#263238" d="M 377.867188 293.082031 C 377.867188 293.082031 372.402344 287.417969 373.9375 287.589844 C 375.46875 287.761719 378.339844 291.992188 378.339844 291.992188 C 378.339844 291.992188 378.378906 282.660156 379.742188 284.707031 C 381.105469 286.75 379.429688 292.03125 379.429688 292.03125 C 379.429688 292.03125 383.328125 285.953125 383.316406 286.945312 C 383.292969 290.019531 380.316406 292.421875 380.316406 292.421875 C 380.316406 292.421875 386.554688 287.800781 385.53125 289.675781 C 384.511719 291.546875 380.519531 293.320312 380.519531 293.320312 C 380.519531 293.320312 387.714844 291.867188 385.160156 292.890625 C 382.601562 293.914062 380.171875 294.613281 380.171875 294.613281 L 378.183594 294.613281 C 378.183594 294.613281 371.390625 291.207031 373.945312 291.71875 C 376.503906 292.230469 377.867188 293.082031 377.867188 293.082031 Z M 377.867188 293.082031 " fill-opacity="1" fill-rule="nonzero"/><path fill="#263238" d="M 450.019531 275.367188 C 450.019531 275.367188 445.765625 270.960938 446.960938 271.09375 C 448.152344 271.226562 450.386719 274.523438 450.386719 274.523438 C 450.386719 274.523438 450.417969 267.257812 451.476562 268.851562 C 452.539062 270.441406 451.234375 274.550781 451.234375 274.550781 C 451.234375 274.550781 454.269531 269.820312 454.261719 270.59375 C 454.238281 272.984375 451.925781 274.855469 451.925781 274.855469 C 451.925781 274.855469 456.78125 271.257812 455.984375 272.714844 C 455.191406 274.175781 452.085938 275.550781 452.085938 275.550781 C 452.085938 275.550781 457.683594 274.421875 455.691406 275.21875 C 453.703125 276.015625 451.8125 276.5625 451.8125 276.5625 L 450.265625 276.5625 C 450.265625 276.5625 444.980469 273.910156 446.96875 274.308594 C 448.957031 274.703125 450.019531 275.367188 450.019531 275.367188 Z M 450.019531 275.367188 " fill-opacity="1" fill-rule="nonzero"/><path fill="#263238" d="M 517.003906 259.5625 C 517.003906 259.5625 512.753906 255.160156 513.945312 255.292969 C 515.140625 255.425781 517.375 258.71875 517.375 258.71875 C 517.375 258.71875 517.402344 251.457031 518.464844 253.046875 C 519.527344 254.640625 518.222656 258.75 518.222656 258.75 C 518.222656 258.75 521.253906 254.019531 521.246094 254.789062 C 521.226562 257.179688 518.910156 259.050781 518.910156 259.050781 C 518.910156 259.050781 523.765625 255.453125 522.972656 256.914062 C 522.175781 258.371094 519.070312 259.75 519.070312 259.75 C 519.070312 259.75 524.671875 258.621094 522.679688 259.414062 C 520.691406 260.210938 518.800781 260.757812 518.800781 260.757812 L 517.253906 260.757812 C 517.253906 260.757812 511.964844 258.105469 513.957031 258.503906 C 515.945312 258.902344 517.003906 259.5625 517.003906 259.5625 Z M 517.003906 259.5625 " fill-opacity="1" fill-rule="nonzero"/><path fill="#92e3a9" d="M 431.632812 295.660156 C 431.632812 295.660156 426.554688 290.398438 427.980469 290.554688 C 429.40625 290.714844 432.074219 294.648438 432.074219 294.648438 C 432.074219 294.648438 432.109375 285.972656 433.375 287.875 C 434.644531 289.777344 433.085938 294.6875 433.085938 294.6875 C 433.085938 294.6875 436.710938 289.035156 436.703125 289.957031 C 436.675781 292.8125 433.910156 295.046875 433.910156 295.046875 C 433.910156 295.046875 439.710938 290.75 438.761719 292.492188 C 437.808594 294.234375 434.101562 295.882812 434.101562 295.882812 C 434.101562 295.882812 440.789062 294.53125 438.410156 295.484375 C 436.035156 296.433594 433.773438 297.085938 433.773438 297.085938 L 431.925781 297.085938 C 431.925781 297.085938 425.613281 293.917969 427.988281 294.390625 C 430.367188 294.867188 431.632812 295.660156 431.632812 295.660156 Z M 431.632812 295.660156 " fill-opacity="1" fill-rule="nonzero"/><path stroke-linecap="butt" transform="matrix(0.749334, 0, 0, 0.749334, 0, 0.166514)" fill="none" stroke-linejoin="miter" d="M 441.892463 363.877197 L 381.927747 296.645611 L 368.79108 307.149732 L 303.050402 208.1712 L 245.817279 220.922108 L 228.703121 188.951005 L 212.068555 188.075227 L 180.55098 125.910641 L 133.404941 168.928013 L 110.671208 160.811429 L 27.868501 245.240581 " stroke="#263238" stroke-width="1" stroke-opacity="1" stroke-miterlimit="10"/><path stroke-linecap="butt" transform="matrix(0.749334, 0, 0, 0.749334, 0, 0.166514)" fill="none" stroke-linejoin="miter" d="M 453.136824 376.482142 L 446.849991 369.434216 " stroke="#263238" stroke-width="1" stroke-opacity="1" stroke-miterlimit="10"/><path stroke-linecap="butt" transform="matrix(0.749334, 0, 0, 0.749334, 0, 0.166514)" fill="none" stroke-linejoin="miter" d="M 215.086861 229.142951 L 210.129333 230.482682 " stroke="#263238" stroke-width="1" stroke-opacity="1" stroke-miterlimit="10"/><path stroke-linecap="butt" transform="matrix(0.749334, 0, 0, 0.749334, 0, 0.166514)" fill="none" stroke-linejoin="miter" d="M 245.702594 220.849126 L 220.669944 227.631191 " stroke="#263238" stroke-width="1" stroke-opacity="1" stroke-miterlimit="10"/><path stroke-linecap="butt" transform="matrix(0.749334, 0, 0, 0.749334, 0, 0.166514)" fill="none" stroke-linejoin="miter" d="M 151.264553 192.07357 L 165.282211 171.383319 L 164.333451 164.283263 L 180.420656 131.634474 " stroke="#263238" stroke-width="1" stroke-opacity="1" stroke-miterlimit="10"/><path stroke-linecap="butt" transform="matrix(0.749334, 0, 0, 0.749334, 0, 0.166514)" fill="none" stroke-linejoin="miter" d="M 145.405182 200.721875 L 148.918719 195.529764 " stroke="#263238" stroke-width="1" stroke-opacity="1" stroke-miterlimit="10"/><path stroke-linecap="butt" transform="matrix(0.749334, 0, 0, 0.749334, 0, 0.166514)" fill="none" stroke-linejoin="miter" d="M 123.651487 212.961913 L 100.922967 243.786164 " stroke="#263238" stroke-width="1" stroke-opacity="1" stroke-miterlimit="10"/><path stroke-linecap="butt" transform="matrix(0.749334, 0, 0, 0.749334, 0, 0.166514)" fill="none" stroke-linejoin="miter" d="M 111.807634 164.283263 L 117.484551 177.060236 L 130.261524 187.470523 L 128.843598 205.924413 L 125.747098 210.126061 " stroke="#263238" stroke-width="1" stroke-opacity="1" stroke-miterlimit="10"/><path stroke-linecap="butt" transform="matrix(0.749334, 0, 0, 0.749334, 0, 0.166514)" fill="none" stroke-linejoin="miter" d="M 228.703121 188.951005 L 216.859268 200.247496 L 212.600277 193.14744 " stroke="#263238" stroke-width="1" stroke-opacity="1" stroke-miterlimit="10"/><path stroke-linecap="butt" transform="matrix(0.749334, 0, 0, 0.749334, 0, 0.166514)" fill="none" stroke-linejoin="miter" d="M 707.008131 315.438343 L 614.994118 250.531739 L 587.057849 289.967805 L 552.553245 278.462795 L 499.15165 353.227113 L 464.641834 345.835132 L 447.392139 360.624308 " stroke="#263238" stroke-width="1" stroke-opacity="1" stroke-miterlimit="10"/><path stroke-linecap="butt" transform="matrix(0.749334, 0, 0, 0.749334, 0, 0.166514)" fill="none" stroke-linejoin="miter" d="M 614.994118 250.531739 L 604.052109 298.626537 L 591.150025 292.980898 " stroke="#263238" stroke-width="1" stroke-opacity="1" stroke-miterlimit="10"/><path stroke-linecap="butt" transform="matrix(0.749334, 0, 0, 0.749334, 0, 0.166514)" fill="none" stroke-linejoin="miter" d="M 552.845171 281.288221 L 525.831596 359.910132 L 507.289086 356.683308 " stroke="#263238" stroke-width="1" stroke-opacity="1" stroke-miterlimit="10"/><path fill="#92e3a9" d="M 413.332031 206.734375 C 395.386719 206.734375 380.84375 221.183594 380.84375 239.003906 C 380.84375 247.265625 383.972656 254.800781 389.113281 260.511719 C 391.464844 260.167969 395.753906 259.933594 400.492188 261.546875 C 406.773438 263.683594 410.6875 267.183594 411.542969 268 L 414.457031 268 C 415.3125 267.183594 419.226562 263.683594 425.507812 261.546875 C 430.667969 259.792969 435.292969 260.226562 437.46875 260.601562 C 442.660156 254.882812 445.820312 247.308594 445.820312 239.003906 C 445.820312 221.183594 431.273438 206.734375 413.332031 206.734375 Z M 413.332031 206.734375 " fill-opacity="1" fill-rule="nonzero"/><path fill="#263238" d="M 428.457031 251.945312 C 427.457031 252.429688 426.464844 252.929688 425.488281 253.449219 C 424.507812 253.984375 423.550781 254.566406 422.648438 255.203125 C 422.308594 255.4375 421.976562 255.679688 421.644531 255.921875 L 426.964844 246.007812 L 419.664062 257.445312 C 418.925781 258.039062 418.195312 258.648438 417.484375 259.265625 C 416.304688 260.292969 415.160156 261.339844 414.035156 262.417969 L 413.664062 251.660156 L 421.304688 240.027344 L 413.609375 250.035156 L 413.277344 240.40625 L 412.726562 251.179688 L 412.726562 251.183594 L 412.175781 261.980469 C 411.199219 261.054688 410.207031 260.152344 409.1875 259.265625 C 408.386719 258.570312 407.574219 257.886719 406.738281 257.222656 L 399.828125 245.425781 L 404.902344 255.832031 C 404.613281 255.621094 404.320312 255.40625 404.023438 255.203125 C 403.125 254.566406 402.164062 253.984375 401.1875 253.449219 C 400.207031 252.929688 399.21875 252.429688 398.21875 251.945312 C 396.214844 250.984375 394.175781 250.085938 392.070312 249.34375 C 394.117188 250.210938 396.078125 251.226562 397.996094 252.300781 C 398.953125 252.839844 399.898438 253.394531 400.828125 253.96875 C 401.742188 254.546875 402.621094 255.160156 403.457031 255.835938 C 405.140625 257.167969 406.714844 258.621094 408.226562 260.125 C 409.550781 261.4375 410.835938 262.796875 412.0625 264.175781 L 411.367188 277.878906 L 414.566406 277.878906 L 414.113281 264.730469 C 415.484375 263.160156 416.945312 261.613281 418.445312 260.125 C 419.957031 258.621094 421.53125 257.167969 423.214844 255.835938 C 424.050781 255.160156 424.929688 254.546875 425.847656 253.96875 C 426.777344 253.394531 427.722656 252.839844 428.679688 252.300781 C 430.59375 251.226562 432.554688 250.210938 434.601562 249.34375 C 432.496094 250.085938 430.457031 250.984375 428.457031 251.945312 Z M 428.457031 251.945312 " fill-opacity="1" fill-rule="nonzero"/><path fill="#92e3a9" d="M 163.886719 251.011719 C 163.886719 260.285156 158.6875 260.984375 152.273438 260.984375 C 145.859375 260.984375 140.660156 260.285156 140.660156 251.011719 C 140.660156 241.742188 145.859375 222.359375 152.273438 222.359375 C 158.6875 222.359375 163.886719 241.742188 163.886719 251.011719 Z M 163.886719 251.011719 " fill-opacity="1" fill-rule="nonzero"/><path fill="#263238" d="M 156.199219 255.21875 L 154.277344 255.351562 L 159.28125 251.976562 L 155.707031 253.785156 L 156.199219 252.371094 L 154.566406 254.363281 L 152.648438 255.332031 L 152.496094 248.671875 L 153.511719 246.207031 L 152.472656 247.59375 L 152.382812 243.734375 L 155.566406 239.492188 L 152.363281 242.773438 L 152.167969 234.273438 L 151.996094 239.710938 L 149.957031 237.4375 L 151.964844 240.757812 L 151.691406 249.371094 L 149.914062 248.210938 L 148.296875 245.339844 L 148.945312 247.574219 L 145.765625 245.496094 L 151.65625 250.574219 L 150.761719 278.847656 L 153.1875 278.847656 L 152.675781 256.433594 L 153.234375 256.054688 Z M 156.199219 255.21875 " fill-opacity="1" fill-rule="nonzero"/><path fill="#92e3a9" d="M 476.214844 219.082031 C 476.214844 237.199219 466.054688 238.566406 453.523438 238.566406 C 440.992188 238.566406 430.835938 237.199219 430.835938 219.082031 C 430.835938 200.964844 440.992188 163.097656 453.523438 163.097656 C 466.054688 163.097656 476.214844 200.96875 476.214844 219.082031 Z M 476.214844 219.082031 " fill-opacity="1" fill-rule="nonzero"/><path fill="#ffffff" d="M 476.214844 219.082031 C 476.214844 237.199219 466.054688 238.566406 453.523438 238.566406 C 440.992188 238.566406 430.835938 237.199219 430.835938 219.082031 C 430.835938 200.964844 440.992188 163.097656 453.523438 163.097656 C 466.054688 163.097656 476.214844 200.96875 476.214844 219.082031 Z M 476.214844 219.082031 " fill-opacity="0.31" fill-rule="nonzero"/><path fill="#263238" d="M 461.195312 227.300781 L 457.441406 227.5625 L 467.21875 220.972656 L 460.238281 224.5 L 461.195312 221.742188 L 458.003906 225.628906 L 454.261719 227.519531 L 453.964844 214.511719 L 455.945312 209.699219 L 453.914062 212.40625 L 453.742188 204.863281 L 459.960938 196.570312 L 453.699219 202.980469 L 453.320312 186.378906 L 452.984375 197.003906 L 448.996094 192.554688 L 452.921875 199.046875 L 452.390625 215.878906 L 448.917969 213.609375 L 445.753906 208 L 447.023438 212.367188 L 440.8125 208.308594 L 452.316406 218.230469 L 450.574219 273.476562 L 455.308594 273.476562 L 454.308594 229.675781 L 455.402344 228.9375 Z M 461.195312 227.300781 " fill-opacity="1" fill-rule="nonzero"/><path fill="#92e3a9" d="M 524.785156 226.210938 C 524.785156 235.484375 519.585938 236.183594 513.171875 236.183594 C 506.757812 236.183594 501.5625 235.484375 501.5625 226.210938 C 501.5625 216.941406 506.757812 197.5625 513.171875 197.5625 C 519.585938 197.5625 524.785156 216.941406 524.785156 226.210938 Z M 524.785156 226.210938 " fill-opacity="1" fill-rule="nonzero"/><path fill="#ffffff" d="M 524.785156 226.210938 C 524.785156 235.484375 519.585938 236.183594 513.171875 236.183594 C 506.757812 236.183594 501.5625 235.484375 501.5625 226.210938 C 501.5625 216.941406 506.757812 197.5625 513.171875 197.5625 C 519.585938 197.5625 524.785156 216.941406 524.785156 226.210938 Z M 524.785156 226.210938 " fill-opacity="0.5" fill-rule="nonzero"/><path fill="#263238" d="M 517.097656 230.417969 L 515.179688 230.550781 L 520.179688 227.179688 L 516.609375 228.984375 L 517.097656 227.574219 L 515.464844 229.5625 L 513.550781 230.53125 L 513.398438 223.875 L 514.414062 221.410156 L 513.375 222.796875 L 513.285156 218.933594 L 516.46875 214.691406 L 513.261719 217.972656 L 513.070312 209.476562 L 512.898438 214.914062 L 510.855469 212.636719 L 512.863281 215.957031 L 512.59375 224.574219 L 510.816406 223.410156 L 509.195312 220.539062 L 509.84375 222.777344 L 506.667969 220.699219 L 512.554688 225.777344 L 511.664062 254.050781 L 514.085938 254.050781 L 513.574219 231.632812 L 514.136719 231.253906 Z M 517.097656 230.417969 " fill-opacity="1" fill-rule="nonzero"/><path fill="#92e3a9" d="M 51.453125 218.375 C 51.453125 227.644531 46.253906 228.34375 39.839844 228.34375 C 33.429688 228.34375 28.230469 227.644531 28.230469 218.375 C 28.230469 209.101562 33.429688 189.722656 39.839844 189.722656 C 46.253906 189.722656 51.453125 209.101562 51.453125 218.375 Z M 51.453125 218.375 " fill-opacity="1" fill-rule="nonzero"/><path fill="#ffffff" d="M 51.453125 218.375 C 51.453125 227.644531 46.253906 228.34375 39.839844 228.34375 C 33.429688 228.34375 28.230469 227.644531 28.230469 218.375 C 28.230469 209.101562 33.429688 189.722656 39.839844 189.722656 C 46.253906 189.722656 51.453125 209.101562 51.453125 218.375 Z M 51.453125 218.375 " fill-opacity="0.5" fill-rule="nonzero"/><path fill="#263238" d="M 43.769531 222.578125 L 41.847656 222.710938 L 46.851562 219.339844 L 43.277344 221.144531 L 43.769531 219.734375 L 42.132812 221.722656 L 40.21875 222.691406 L 40.066406 216.035156 L 41.082031 213.570312 L 40.042969 214.957031 L 39.953125 211.097656 L 43.136719 206.851562 L 39.929688 210.132812 L 39.738281 201.636719 L 39.566406 207.074219 L 37.523438 204.796875 L 39.53125 208.121094 L 39.261719 216.734375 L 37.484375 215.570312 L 35.863281 212.699219 L 36.511719 214.9375 L 33.335938 212.859375 L 39.222656 217.9375 L 38.332031 246.210938 L 40.753906 246.210938 L 40.242188 223.792969 L 40.804688 223.417969 Z M 43.769531 222.578125 " fill-opacity="1" fill-rule="nonzero"/><path fill="#92e3a9" d="M 109 197.347656 C 91.054688 197.347656 76.507812 211.792969 76.507812 229.617188 C 76.507812 237.878906 79.636719 245.414062 84.78125 251.121094 C 87.132812 250.78125 91.421875 250.546875 96.160156 252.160156 C 102.441406 254.296875 106.355469 257.796875 107.210938 258.613281 L 110.121094 258.613281 C 110.980469 257.796875 114.894531 254.296875 121.171875 252.160156 C 126.332031 250.40625 130.960938 250.835938 133.132812 251.214844 C 138.324219 245.496094 141.488281 237.921875 141.488281 229.617188 C 141.488281 211.792969 126.941406 197.347656 109 197.347656 Z M 109 197.347656 " fill-opacity="1" fill-rule="nonzero"/><path fill="#ffffff" d="M 109 197.347656 C 91.054688 197.347656 76.507812 211.792969 76.507812 229.617188 C 76.507812 237.878906 79.636719 245.414062 84.78125 251.121094 C 87.132812 250.78125 91.421875 250.546875 96.160156 252.160156 C 102.441406 254.296875 106.355469 257.796875 107.210938 258.613281 L 110.121094 258.613281 C 110.980469 257.796875 114.894531 254.296875 121.171875 252.160156 C 126.332031 250.40625 130.960938 250.835938 133.132812 251.214844 C 138.324219 245.496094 141.488281 237.921875 141.488281 229.617188 C 141.488281 211.792969 126.941406 197.347656 109 197.347656 Z M 109 197.347656 " fill-opacity="0.33" fill-rule="nonzero"/><path fill="#263238" d="M 124.121094 242.558594 C 123.121094 243.042969 122.132812 243.542969 121.152344 244.0625 C 120.175781 244.597656 119.214844 245.179688 118.316406 245.816406 C 117.972656 246.050781 117.640625 246.292969 117.308594 246.535156 L 122.632812 236.621094 L 115.328125 248.058594 C 114.589844 248.652344 113.863281 249.261719 113.148438 249.878906 C 111.972656 250.90625 110.824219 251.953125 109.699219 253.03125 L 109.328125 242.273438 L 116.96875 230.640625 L 109.273438 240.648438 L 108.941406 231.019531 L 108.394531 241.792969 L 108.390625 241.792969 L 108.394531 241.796875 L 107.84375 252.589844 C 106.867188 251.667969 105.875 250.765625 104.855469 249.878906 C 104.054688 249.183594 103.238281 248.5 102.402344 247.835938 L 95.496094 236.039062 L 100.570312 246.445312 C 100.277344 246.234375 99.988281 246.019531 99.691406 245.816406 C 98.789062 245.179688 97.832031 244.597656 96.851562 244.0625 C 95.875 243.542969 94.882812 243.042969 93.886719 242.558594 C 91.882812 241.597656 89.84375 240.699219 87.738281 239.957031 C 89.785156 240.824219 91.746094 241.839844 93.660156 242.914062 C 94.617188 243.453125 95.5625 244.007812 96.492188 244.582031 C 97.40625 245.160156 98.289062 245.773438 99.125 246.449219 C 100.808594 247.78125 102.378906 249.234375 103.894531 250.738281 C 105.21875 252.050781 106.503906 253.410156 107.730469 254.789062 L 107.03125 268.492188 L 110.234375 268.492188 L 109.78125 255.34375 C 111.152344 253.773438 112.609375 252.226562 114.113281 250.738281 C 115.625 249.234375 117.199219 247.78125 118.882812 246.449219 C 119.71875 245.773438 120.597656 245.160156 121.511719 244.582031 C 122.441406 244.007812 123.386719 243.453125 124.34375 242.914062 C 126.261719 241.839844 128.222656 240.824219 130.269531 239.957031 C 128.164062 240.699219 126.121094 241.597656 124.121094 242.558594 Z M 124.121094 242.558594 " fill-opacity="1" fill-rule="nonzero"/><path fill="#263238" d="M 199.199219 293.640625 L 199.199219 263.910156 L 160.503906 263.910156 L 160.503906 244.875 L 193.695312 166.222656 L 222.011719 166.222656 L 222.011719 245.347656 L 234.28125 245.347656 L 234.28125 263.910156 L 222.011719 263.910156 L 222.011719 293.640625 Z M 179.695312 245.347656 L 199.199219 245.347656 L 199.199219 191.234375 Z M 179.695312 245.347656 " fill-opacity="1" fill-rule="nonzero"/><path fill="#263238" d="M 279.898438 293.710938 C 272.242188 293.710938 265.898438 292.136719 260.863281 288.992188 C 255.832031 285.84375 252.054688 281.519531 249.539062 276.011719 C 247.023438 270.507812 245.761719 264.136719 245.761719 256.898438 L 245.761719 199.796875 C 245.761719 192.351562 246.96875 185.824219 249.382812 180.214844 C 251.792969 174.605469 255.515625 170.226562 260.550781 167.078125 C 265.585938 163.933594 272.03125 162.359375 279.898438 162.359375 C 287.660156 162.359375 294.03125 163.933594 299.011719 167.078125 C 303.992188 170.226562 307.6875 174.605469 310.101562 180.214844 C 312.511719 185.824219 313.71875 192.351562 313.71875 199.796875 L 313.71875 256.898438 C 313.71875 264.136719 312.460938 270.507812 309.945312 276.011719 C 307.425781 281.519531 303.652344 285.84375 298.617188 288.992188 C 293.582031 292.136719 287.34375 293.710938 279.898438 293.710938 Z M 279.898438 272.316406 C 282.730469 272.316406 284.773438 271.425781 286.035156 269.640625 C 287.292969 267.859375 288.128906 265.734375 288.550781 263.269531 C 288.96875 260.808594 289.179688 258.527344 289.179688 256.425781 L 289.179688 200.269531 C 289.179688 197.964844 288.996094 195.550781 288.628906 193.03125 C 288.261719 190.515625 287.449219 188.339844 286.191406 186.503906 C 284.933594 184.671875 282.832031 183.75 279.898438 183.75 C 276.960938 183.75 274.835938 184.671875 273.527344 186.503906 C 272.214844 188.339844 271.378906 190.515625 271.011719 193.03125 C 270.640625 195.550781 270.460938 197.964844 270.460938 200.269531 L 270.460938 256.425781 C 270.460938 258.527344 270.667969 260.808594 271.089844 263.269531 C 271.507812 265.734375 272.398438 267.859375 273.765625 269.640625 C 275.125 271.425781 277.171875 272.316406 279.898438 272.316406 Z M 279.898438 272.316406 " fill-opacity="1" fill-rule="nonzero"/><path fill="#263238" d="M 365.628906 293.640625 L 365.628906 263.910156 L 326.933594 263.910156 L 326.933594 244.875 L 360.125 166.222656 L 388.4375 166.222656 L 388.4375 245.347656 L 400.707031 245.347656 L 400.707031 263.910156 L 388.4375 263.910156 L 388.4375 293.640625 Z M 346.125 245.347656 L 365.628906 245.347656 L 365.628906 191.234375 Z M 346.125 245.347656 " fill-opacity="1" fill-rule="nonzero"/><path fill="#ffffff" d="M 539.601562 232.191406 C 490.613281 264.304688 393.859375 286.164062 282.507812 286.164062 C 167.738281 286.164062 68.476562 262.945312 21.035156 229.207031 L 21.035156 358.347656 L 539.601562 358.347656 Z M 539.601562 232.191406 " fill-opacity="1" fill-rule="nonzero"/><path stroke-linecap="butt" transform="matrix(0.749334, 0, 0, 0.749334, 0, 0.166514)" fill="none" stroke-linejoin="miter" d="M 705.908196 318.185575 C 637.086656 356.328826 515.509929 381.66904 377.011923 381.66904 C 223.849852 381.66904 91.383245 350.683187 28.071807 305.658824 " stroke="#263238" stroke-width="1" stroke-opacity="1" stroke-miterlimit="10"/><path stroke-linecap="butt" transform="matrix(0.749334, 0, 0, 0.749334, 0, 0.166514)" fill="none" stroke-linejoin="miter" d="M 720.41066 309.443436 C 717.465335 311.382658 714.389687 313.295815 711.183715 315.177695 " stroke="#263238" stroke-width="1" stroke-opacity="1" stroke-miterlimit="10"/><path fill="#92e3a9" d="M 508.324219 224.707031 C 508.324219 243.648438 497.703125 245.078125 484.597656 245.078125 C 471.496094 245.078125 460.871094 243.648438 460.871094 224.707031 C 460.871094 205.761719 471.496094 166.164062 484.597656 166.164062 C 497.703125 166.164062 508.324219 205.761719 508.324219 224.707031 Z M 508.324219 224.707031 " fill-opacity="1" fill-rule="nonzero"/><path fill="#263238" d="M 492.621094 233.300781 L 488.695312 233.570312 L 498.917969 226.679688 L 491.617188 230.371094 L 492.621094 227.488281 L 489.285156 231.550781 L 485.367188 233.53125 L 485.058594 219.925781 L 487.128906 214.894531 L 485.007812 217.722656 L 484.828125 209.835938 L 491.328125 201.167969 L 484.78125 207.867188 L 484.386719 190.507812 L 484.035156 201.621094 L 479.863281 196.96875 L 483.96875 203.753906 L 483.414062 221.355469 L 479.78125 218.980469 L 476.472656 213.117188 L 477.800781 217.683594 L 471.304688 213.4375 L 483.335938 223.8125 L 481.515625 281.585938 L 486.464844 281.585938 L 485.421875 235.78125 L 486.5625 235.007812 Z M 492.621094 233.300781 " fill-opacity="1" fill-rule="nonzero"/><path fill="#263238" d="M 483 282.09375 C 483 282.09375 474.242188 273.019531 476.703125 273.292969 C 479.160156 273.566406 483.757812 280.351562 483.757812 280.351562 C 483.757812 280.351562 483.824219 265.394531 486.007812 268.671875 C 488.191406 271.949219 485.507812 280.414062 485.507812 280.414062 C 485.507812 280.414062 491.753906 270.671875 491.742188 272.261719 C 491.695312 277.183594 486.929688 281.035156 486.929688 281.035156 C 486.929688 281.035156 496.929688 273.628906 495.289062 276.632812 C 493.652344 279.636719 487.257812 282.476562 487.257812 282.476562 C 487.257812 282.476562 498.785156 280.148438 494.691406 281.789062 C 490.59375 283.425781 486.695312 284.550781 486.695312 284.550781 L 483.511719 284.550781 C 483.511719 284.550781 472.621094 279.089844 476.71875 279.910156 C 480.816406 280.726562 483 282.09375 483 282.09375 Z M 483 282.09375 " fill-opacity="1" fill-rule="nonzero"/><path fill="#263238" d="M 63.488281 270.828125 C 63.488281 270.828125 55.914062 262.980469 58.039062 263.214844 C 60.164062 263.453125 64.144531 269.320312 64.144531 269.320312 C 64.144531 269.320312 64.199219 256.382812 66.089844 259.21875 C 67.976562 262.054688 65.65625 269.375 65.65625 269.375 C 65.65625 269.375 71.058594 260.949219 71.046875 262.324219 C 71.007812 266.582031 66.882812 269.914062 66.882812 269.914062 C 66.882812 269.914062 75.535156 263.503906 74.117188 266.105469 C 72.699219 268.703125 67.167969 271.15625 67.167969 271.15625 C 67.167969 271.15625 77.140625 269.144531 73.597656 270.5625 C 70.054688 271.980469 66.683594 272.953125 66.683594 272.953125 L 63.925781 272.953125 C 63.925781 272.953125 54.507812 268.230469 58.054688 268.9375 C 61.597656 269.648438 63.488281 270.828125 63.488281 270.828125 Z M 63.488281 270.828125 " fill-opacity="1" fill-rule="nonzero"/><path fill="#92e3a9" d="M 90.863281 214.378906 C 90.863281 233.34375 80.230469 234.777344 67.113281 234.777344 C 53.996094 234.777344 43.359375 233.34375 43.359375 214.378906 C 43.359375 195.414062 53.996094 155.773438 67.113281 155.773438 C 80.230469 155.773438 90.863281 195.414062 90.863281 214.378906 Z M 90.863281 214.378906 " fill-opacity="1" fill-rule="nonzero"/><path fill="#263238" d="M 75.144531 222.984375 L 71.214844 223.253906 L 81.449219 216.355469 L 74.140625 220.050781 L 75.144531 217.164062 L 71.800781 221.230469 L 67.882812 223.214844 L 67.570312 209.59375 L 69.648438 204.554688 L 67.523438 207.390625 L 67.339844 199.492188 L 73.851562 190.8125 L 67.296875 197.523438 L 66.898438 180.144531 L 66.546875 191.269531 L 62.375 186.609375 L 66.480469 193.40625 L 65.925781 211.023438 L 62.289062 208.648438 L 58.976562 202.777344 L 60.304688 207.351562 L 53.804688 203.101562 L 65.847656 213.488281 L 64.023438 271.320312 L 68.984375 271.320312 L 67.933594 225.464844 L 69.082031 224.695312 Z M 75.144531 222.984375 " fill-opacity="1" fill-rule="nonzero"/><path fill="#263238" d="M 146.410156 290.542969 C 146.410156 290.542969 138.835938 282.695312 140.964844 282.933594 C 143.089844 283.167969 147.066406 289.035156 147.066406 289.035156 C 147.066406 289.035156 147.125 276.101562 149.011719 278.933594 C 150.902344 281.769531 148.582031 289.089844 148.582031 289.089844 C 148.582031 289.089844 153.980469 280.664062 153.96875 282.039062 C 153.933594 286.296875 149.808594 289.628906 149.808594 289.628906 C 149.808594 289.628906 158.457031 283.21875 157.039062 285.820312 C 155.625 288.417969 150.09375 290.875 150.09375 290.875 C 150.09375 290.875 160.066406 288.863281 156.519531 290.28125 C 152.976562 291.695312 149.605469 292.667969 149.605469 292.667969 L 146.851562 292.667969 C 146.851562 292.667969 137.433594 287.945312 140.976562 288.652344 C 144.523438 289.363281 146.410156 290.542969 146.410156 290.542969 Z M 146.410156 290.542969 " fill-opacity="1" fill-rule="nonzero"/><path fill="#263238" d="M 186.613281 307.742188 C 186.613281 307.742188 179.039062 299.894531 181.164062 300.128906 C 183.292969 300.367188 187.269531 306.234375 187.269531 306.234375 C 187.269531 306.234375 187.324219 293.296875 189.214844 296.132812 C 191.105469 298.964844 188.78125 306.289062 188.78125 306.289062 C 188.78125 306.289062 194.183594 297.859375 194.171875 299.238281 C 194.136719 303.496094 190.011719 306.824219 190.011719 306.824219 C 190.011719 306.824219 198.660156 300.417969 197.242188 303.015625 C 195.828125 305.613281 190.292969 308.070312 190.292969 308.070312 C 190.292969 308.070312 200.265625 306.058594 196.722656 307.476562 C 193.179688 308.894531 189.808594 309.867188 189.808594 309.867188 L 187.054688 309.867188 C 187.054688 309.867188 177.636719 305.140625 181.179688 305.851562 C 184.722656 306.558594 186.613281 307.742188 186.613281 307.742188 Z M 186.613281 307.742188 " fill-opacity="1" fill-rule="nonzero"/><path fill="#263238" d="M 294.445312 296.195312 C 294.445312 296.195312 288.980469 290.535156 290.515625 290.703125 C 292.046875 290.875 294.917969 295.105469 294.917969 295.105469 C 294.917969 295.105469 294.957031 285.773438 296.320312 287.820312 C 297.683594 289.863281 296.007812 295.144531 296.007812 295.144531 C 296.007812 295.144531 299.90625 289.066406 299.898438 290.058594 C 299.871094 293.132812 296.894531 295.535156 296.894531 295.535156 C 296.894531 295.535156 303.136719 290.914062 302.113281 292.785156 C 301.089844 294.660156 297.101562 296.433594 297.101562 296.433594 C 297.101562 296.433594 304.292969 294.980469 301.738281 296.003906 C 299.179688 297.027344 296.75 297.726562 296.75 297.726562 L 294.761719 297.726562 C 294.761719 297.726562 287.96875 294.320312 290.527344 294.832031 C 293.082031 295.34375 294.445312 296.195312 294.445312 296.195312 Z M 294.445312 296.195312 " fill-opacity="1" fill-rule="nonzero"/><path fill="#263238" d="M 506.527344 282.648438 C 506.527344 282.648438 502.277344 278.242188 503.46875 278.375 C 504.660156 278.507812 506.894531 281.804688 506.894531 281.804688 C 506.894531 281.804688 506.925781 274.539062 507.988281 276.132812 C 509.046875 277.722656 507.746094 281.832031 507.746094 281.832031 C 507.746094 281.832031 510.777344 277.101562 510.769531 277.875 C 510.75 280.265625 508.433594 282.136719 508.433594 282.136719 C 508.433594 282.136719 513.289062 278.539062 512.496094 279.996094 C 511.699219 281.457031 508.59375 282.835938 508.59375 282.835938 C 508.59375 282.835938 514.191406 281.703125 512.203125 282.5 C 510.214844 283.296875 508.320312 283.84375 508.320312 283.84375 L 506.773438 283.84375 C 506.773438 283.84375 501.488281 281.191406 503.476562 281.589844 C 505.464844 281.984375 506.527344 282.648438 506.527344 282.648438 Z M 506.527344 282.648438 " fill-opacity="1" fill-rule="nonzero"/><path fill="#92e3a9" d="M 220.230469 296.222656 C 220.230469 296.222656 212.65625 288.375 214.78125 288.613281 C 216.90625 288.847656 220.886719 294.71875 220.886719 294.71875 C 220.886719 294.71875 220.941406 281.78125 222.832031 284.613281 C 224.722656 287.449219 222.398438 294.769531 222.398438 294.769531 C 222.398438 294.769531 227.800781 286.34375 227.789062 287.71875 C 227.75 291.976562 223.625 295.308594 223.625 295.308594 C 223.625 295.308594 232.277344 288.902344 230.859375 291.5 C 229.441406 294.097656 223.910156 296.554688 223.910156 296.554688 C 223.910156 296.554688 233.882812 294.542969 230.339844 295.960938 C 226.796875 297.375 223.425781 298.351562 223.425781 298.351562 L 220.667969 298.351562 C 220.667969 298.351562 211.253906 293.625 214.796875 294.335938 C 218.339844 295.042969 220.230469 296.222656 220.230469 296.222656 Z M 220.230469 296.222656 " fill-opacity="1" fill-rule="nonzero"/><path fill="#92e3a9" d="M 165.574219 291.011719 C 165.574219 291.011719 160.496094 285.746094 161.917969 285.90625 C 163.34375 286.0625 166.011719 290 166.011719 290 C 166.011719 290 166.050781 281.324219 167.316406 283.226562 C 168.585938 285.125 167.027344 290.035156 167.027344 290.035156 C 167.027344 290.035156 170.648438 284.382812 170.640625 285.308594 C 170.617188 288.164062 167.851562 290.394531 167.851562 290.394531 C 167.851562 290.394531 173.652344 286.097656 172.703125 287.839844 C 171.75 289.582031 168.042969 291.230469 168.042969 291.230469 C 168.042969 291.230469 174.730469 289.882812 172.351562 290.832031 C 169.976562 291.78125 167.714844 292.433594 167.714844 292.433594 L 165.867188 292.433594 C 165.867188 292.433594 159.554688 289.265625 161.929688 289.742188 C 164.304688 290.21875 165.574219 291.011719 165.574219 291.011719 Z M 165.574219 291.011719 " fill-opacity="1" fill-rule="nonzero"/><path fill="#92e3a9" d="M 102.105469 311.796875 C 102.105469 311.796875 97.027344 306.535156 98.453125 306.691406 C 99.878906 306.851562 102.546875 310.785156 102.546875 310.785156 C 102.546875 310.785156 102.582031 302.113281 103.851562 304.011719 C 105.117188 305.914062 103.558594 310.824219 103.558594 310.824219 C 103.558594 310.824219 107.183594 305.171875 107.175781 306.09375 C 107.148438 308.949219 104.382812 311.183594 104.382812 311.183594 C 104.382812 311.183594 110.183594 306.886719 109.234375 308.628906 C 108.285156 310.371094 104.574219 312.015625 104.574219 312.015625 C 104.574219 312.015625 111.261719 310.667969 108.886719 311.617188 C 106.507812 312.570312 104.25 313.222656 104.25 313.222656 L 102.402344 313.222656 C 102.402344 313.222656 96.085938 310.054688 98.460938 310.527344 C 100.839844 311.003906 102.105469 311.796875 102.105469 311.796875 Z M 102.105469 311.796875 " fill-opacity="1" fill-rule="nonzero"/><path fill="#92e3a9" d="M 272.03125 312.816406 C 272.03125 312.816406 266.953125 307.554688 268.375 307.710938 C 269.800781 307.871094 272.46875 311.804688 272.46875 311.804688 C 272.46875 311.804688 272.507812 303.128906 273.773438 305.03125 C 275.042969 306.933594 273.484375 311.84375 273.484375 311.84375 C 273.484375 311.84375 277.105469 306.191406 277.097656 307.113281 C 277.074219 309.96875 274.308594 312.203125 274.308594 312.203125 C 274.308594 312.203125 280.109375 307.90625 279.160156 309.648438 C 278.207031 311.390625 274.5 313.039062 274.5 313.039062 C 274.5 313.039062 281.1875 311.6875 278.808594 312.640625 C 276.433594 313.589844 274.171875 314.242188 274.171875 314.242188 L 272.324219 314.242188 C 272.324219 314.242188 266.011719 311.074219 268.386719 311.546875 C 270.761719 312.023438 272.03125 312.816406 272.03125 312.816406 Z M 272.03125 312.816406 " fill-opacity="1" fill-rule="nonzero"/><path fill="#92e3a9" d="M 354.4375 313.089844 C 354.4375 313.089844 349.359375 307.828125 350.785156 307.988281 C 352.207031 308.144531 354.878906 312.082031 354.878906 312.082031 C 354.878906 312.082031 354.914062 303.40625 356.179688 305.304688 C 357.449219 307.207031 355.890625 312.117188 355.890625 312.117188 C 355.890625 312.117188 359.511719 306.464844 359.503906 307.390625 C 359.480469 310.246094 356.714844 312.476562 356.714844 312.476562 C 356.714844 312.476562 362.515625 308.179688 361.566406 309.921875 C 360.613281 311.664062 356.90625 313.3125 356.90625 313.3125 C 356.90625 313.3125 363.59375 311.964844 361.214844 312.914062 C 358.839844 313.863281 356.578125 314.515625 356.578125 314.515625 L 354.730469 314.515625 C 354.730469 314.515625 348.417969 311.347656 350.792969 311.824219 C 353.167969 312.296875 354.4375 313.089844 354.4375 313.089844 Z M 354.4375 313.089844 " fill-opacity="1" fill-rule="nonzero"/><path fill="#92e3a9" d="M 507.652344 296.628906 C 507.652344 296.628906 499.917969 288.617188 502.085938 288.859375 C 504.257812 289.097656 508.320312 295.089844 508.320312 295.089844 C 508.320312 295.089844 508.375 281.882812 510.304688 284.777344 C 512.234375 287.671875 509.863281 295.144531 509.863281 295.144531 C 509.863281 295.144531 515.378906 286.542969 515.367188 287.949219 C 515.328125 292.296875 511.117188 295.695312 511.117188 295.695312 C 511.117188 295.695312 519.949219 289.152344 518.503906 291.804688 C 517.054688 294.460938 511.410156 296.964844 511.410156 296.964844 C 511.410156 296.964844 521.589844 294.914062 517.972656 296.359375 C 514.355469 297.804688 510.914062 298.800781 510.914062 298.800781 L 508.097656 298.800781 C 508.097656 298.800781 498.484375 293.976562 502.101562 294.699219 C 505.722656 295.421875 507.652344 296.628906 507.652344 296.628906 Z M 507.652344 296.628906 " fill-opacity="1" fill-rule="nonzero"/><path fill="#92e3a9" d="M 46.863281 296.628906 C 46.863281 296.628906 39.128906 288.617188 41.300781 288.859375 C 43.46875 289.097656 47.53125 295.089844 47.53125 295.089844 C 47.53125 295.089844 47.589844 281.882812 49.519531 284.777344 C 51.449219 287.671875 49.078125 295.144531 49.078125 295.144531 C 49.078125 295.144531 54.59375 286.542969 54.578125 287.949219 C 54.542969 292.296875 50.332031 295.695312 50.332031 295.695312 C 50.332031 295.695312 59.164062 289.152344 57.714844 291.804688 C 56.269531 294.460938 50.621094 296.964844 50.621094 296.964844 C 50.621094 296.964844 60.800781 294.914062 57.183594 296.359375 C 53.566406 297.804688 50.125 298.800781 50.125 298.800781 L 47.3125 298.800781 C 47.3125 298.800781 37.699219 293.976562 41.316406 294.699219 C 44.933594 295.421875 46.863281 296.628906 46.863281 296.628906 Z M 46.863281 296.628906 " fill-opacity="1" fill-rule="nonzero"/><path fill="#92e3a9" d="M 85.007812 285.316406 C 85.007812 285.316406 77.09375 271.667969 79.351562 270.613281 C 81.609375 269.5625 86.273438 279.945312 86.273438 279.945312 C 86.273438 279.945312 85.371094 260.382812 87.480469 262.1875 C 89.585938 263.992188 91.542969 277.839844 91.542969 277.839844 C 91.542969 277.839844 95.757812 262.789062 97.113281 265.949219 C 98.464844 269.109375 96.027344 278.671875 96.027344 278.671875 C 96.027344 278.671875 102.078125 267.152344 102.679688 270.914062 C 103.28125 274.679688 99.820312 280.847656 99.820312 280.847656 C 99.820312 280.847656 107.796875 272.871094 108.398438 276.03125 C 109 279.191406 106.289062 282.351562 106.289062 282.351562 C 106.289062 282.351562 116.824219 276.632812 114.265625 279.792969 C 111.707031 282.953125 107.945312 287.019531 107.945312 287.019531 C 107.945312 287.019531 118.027344 283.40625 116.824219 285.511719 C 115.621094 287.621094 111.105469 289.878906 111.105469 289.878906 C 111.105469 289.878906 119.382812 288.375 118.480469 289.726562 C 117.578125 291.082031 115.476562 292.410156 115.476562 292.410156 L 78 292.410156 C 78 292.410156 68.066406 288.824219 71.980469 288.523438 C 75.890625 288.222656 79.503906 289.878906 79.503906 289.878906 C 79.503906 289.878906 67.3125 281.601562 73.03125 281 C 78.75 280.394531 83.414062 287.621094 83.414062 287.621094 C 83.414062 287.621094 75.289062 276.183594 78.148438 277.988281 Z M 85.007812 285.316406 " fill-opacity="1" fill-rule="nonzero"/><path stroke-linecap="butt" transform="matrix(0.749334, 0, 0, 0.749334, 0, 0.166514)" fill-opacity="1" fill="#263238" fill-rule="nonzero" stroke-linejoin="miter" d="M 114.127403 385.719513 C 114.127403 385.719513 100.490291 371.58717 104.316606 372.014633 C 108.142921 372.442096 115.305533 383.003559 115.305533 383.003559 C 115.305533 383.003559 115.404579 359.717252 118.808644 364.81553 C 122.212709 369.919021 118.031912 383.102605 118.031912 383.102605 C 118.031912 383.102605 127.759302 367.927669 127.733237 370.40904 C 127.665468 378.072096 120.242209 384.072216 120.242209 384.072216 C 120.242209 384.072216 135.81333 372.535929 133.264191 377.211957 C 130.709839 381.893198 120.753079 386.313791 120.753079 386.313791 C 120.753079 386.313791 138.706524 382.690781 132.33107 385.23992 C 125.950403 387.794272 119.882514 389.545828 119.882514 389.545828 L 114.919773 389.545828 C 114.919773 389.545828 97.967217 381.043485 104.347884 382.315448 C 110.723338 383.592624 114.127403 385.719513 114.127403 385.719513 Z M 114.127403 385.719513 " stroke="#263238" stroke-width="1" stroke-opacity="1" stroke-miterlimit="10"/><path fill="#92e3a9" d="M 422.027344 309.328125 C 422.027344 309.328125 407.070312 283.53125 411.335938 281.542969 C 415.601562 279.550781 424.417969 299.175781 424.417969 299.175781 C 424.417969 299.175781 422.710938 262.199219 426.695312 265.613281 C 430.675781 269.027344 434.375 295.195312 434.375 295.195312 C 434.375 295.195312 442.339844 266.75 444.898438 272.722656 C 447.457031 278.695312 442.851562 296.773438 442.851562 296.773438 C 442.851562 296.773438 454.285156 275 455.421875 282.109375 C 456.5625 289.222656 450.019531 300.882812 450.019531 300.882812 C 450.019531 300.882812 465.09375 285.808594 466.234375 291.78125 C 467.371094 297.753906 462.25 303.726562 462.25 303.726562 C 462.25 303.726562 482.160156 292.921875 477.324219 298.894531 C 472.492188 304.867188 465.378906 312.546875 465.378906 312.546875 C 465.378906 312.546875 484.4375 305.71875 482.160156 309.703125 C 479.886719 313.683594 471.351562 317.949219 471.351562 317.949219 C 471.351562 317.949219 486.996094 315.105469 485.289062 317.667969 C 483.582031 320.226562 479.609375 322.738281 479.609375 322.738281 L 408.773438 322.738281 C 408.773438 322.738281 390.003906 315.960938 397.398438 315.390625 C 404.792969 314.820312 411.617188 317.949219 411.617188 317.949219 C 411.617188 317.949219 388.578125 302.304688 399.386719 301.167969 C 410.195312 300.03125 419.015625 313.683594 419.015625 313.683594 C 419.015625 313.683594 403.65625 292.066406 409.058594 295.480469 Z M 422.027344 309.328125 " fill-opacity="1" fill-rule="nonzero"/><path stroke-linecap="butt" transform="matrix(0.749334, 0, 0, 0.749334, 0, 0.166514)" fill-opacity="1" fill="#263238" fill-rule="nonzero" stroke-linejoin="miter" d="M 564.485718 422.37707 C 564.485718 422.37707 538.712828 395.67106 545.948421 396.473856 C 553.184014 397.276652 566.722079 417.247514 566.722079 417.247514 C 566.722079 417.247514 566.904533 373.22404 573.337329 382.873235 C 579.770126 392.517217 571.867274 417.429968 571.867274 417.429968 C 571.867274 417.429968 590.248182 388.753457 590.206478 393.439911 C 590.081367 407.926736 576.04807 419.259718 576.04807 419.259718 C 576.04807 419.259718 605.48046 397.459106 600.658469 406.300291 C 595.836479 415.141477 577.012468 423.497857 577.012468 423.497857 C 577.012468 423.497857 610.948859 416.653236 598.891275 421.475227 C 586.833691 426.297218 575.359959 429.60745 575.359959 429.60745 L 565.987051 429.60745 C 565.987051 429.60745 533.942967 413.530671 546.000551 415.944273 C 558.058134 418.357875 564.485718 422.37707 564.485718 422.37707 Z M 564.485718 422.37707 " stroke="#263238" stroke-width="1" stroke-opacity="1" stroke-miterlimit="10"/><path stroke-linecap="butt" transform="matrix(0.749334, 0, 0, 0.749334, 0, 0.166514)" fill-opacity="1" fill="#ffffff" fill-rule="nonzero" stroke-linejoin="miter" d="M 147.844849 381.569994 C 147.844849 381.569994 149.88833 379.724605 151.639886 379.724605 C 153.391442 379.724605 158.739942 382.294596 158.739942 382.294596 C 158.739942 382.294596 160.88247 385.589189 161.075349 385.787281 C 161.268229 385.985374 163.895562 387.106161 164.088442 387.570115 C 164.286535 388.028856 164.672294 389.545828 164.672294 389.545828 L 148.334867 389.545828 L 145.316562 381.63255 Z M 147.844849 381.569994 " stroke="#263238" stroke-width="1" stroke-opacity="1" stroke-miterlimit="10"/><path fill="#263238" d="M 113.628906 284.707031 L 113.554688 285.871094 C 113.554688 285.871094 116.691406 287.695312 116.617188 288.351562 C 116.542969 289.003906 115.886719 290.535156 115.886719 290.535156 L 117.492188 292.210938 L 108.964844 292.210938 L 109.621094 287.183594 C 109.621094 287.183594 111.441406 284.558594 113.628906 284.707031 Z M 113.628906 284.707031 " fill-opacity="1" fill-rule="nonzero"/><path stroke-linecap="butt" transform="matrix(0.749334, 0, 0, 0.749334, 0, 0.166514)" fill-opacity="1" fill="#ffffff" fill-rule="nonzero" stroke-linejoin="miter" d="M 126.549894 380.600383 C 126.549894 380.600383 134.718607 368.344707 136.563996 368.146614 C 138.414598 367.953734 142.303469 369.51241 143.763099 372.040697 C 145.222728 374.568985 146.583312 379.526513 146.682358 379.818438 C 146.776191 380.110364 147.167164 380.308457 149.403525 383.905402 C 151.639886 387.502346 151.54084 389.545828 151.54084 389.545828 L 119.934644 389.545828 C 119.934644 389.545828 120.617542 386.334642 121.780033 384.489254 C 122.947737 382.643865 125.674116 381.960966 125.674116 381.960966 Z M 126.549894 380.600383 " stroke="#263238" stroke-width="1" stroke-opacity="1" stroke-miterlimit="10"/><path fill="#263238" d="M 104.226562 291.921875 C 104.226562 291.921875 103.570312 290.316406 103.5 290.097656 C 103.425781 289.878906 103.425781 287.765625 103.207031 286.890625 C 102.988281 286.019531 101.167969 283.320312 101.167969 283.320312 L 102.480469 279.53125 L 101.824219 279.019531 L 102.917969 276.324219 L 102.304688 276.042969 C 100.871094 276.300781 94.828125 285.363281 94.828125 285.363281 L 94.171875 286.382812 C 94.171875 286.382812 92.128906 286.890625 91.257812 288.277344 C 90.507812 289.460938 90.027344 291.386719 89.90625 291.921875 Z M 104.226562 291.921875 " fill-opacity="1" fill-rule="nonzero"/><path stroke-linecap="butt" transform="matrix(0.749334, 0, 0, 0.749334, 0, 0.166514)" fill-opacity="1" fill="#ffffff" fill-rule="nonzero" stroke-linejoin="miter" d="M 462.838149 384.619578 C 462.838149 384.619578 464.120538 383.4623 465.21526 383.4623 C 466.315195 383.4623 469.667131 385.073105 469.667131 385.073105 C 469.667131 385.073105 471.012075 387.137439 471.131973 387.26255 C 471.257084 387.387661 472.904381 388.091411 473.024279 388.378124 C 473.144177 388.67005 473.389186 389.618809 473.389186 389.618809 L 463.145714 389.618809 L 461.253408 384.661281 Z M 462.838149 384.619578 " stroke="#263238" stroke-width="1" stroke-opacity="1" stroke-miterlimit="10"/><path fill="#263238" d="M 348.605469 287.503906 L 348.558594 288.238281 C 348.558594 288.238281 350.523438 289.378906 350.476562 289.789062 C 350.429688 290.199219 350.019531 291.160156 350.019531 291.160156 L 351.027344 292.210938 L 345.679688 292.210938 L 346.089844 289.058594 C 346.089844 289.058594 347.230469 287.414062 348.605469 287.503906 Z M 348.605469 287.503906 " fill-opacity="1" fill-rule="nonzero"/><path stroke-linecap="butt" transform="matrix(0.749334, 0, 0, 0.749334, 0, 0.166514)" fill-opacity="1" fill="#ffffff" fill-rule="nonzero" stroke-linejoin="miter" d="M 449.482537 384.009661 C 449.482537 384.009661 454.60688 376.325753 455.764158 376.200642 C 456.926649 376.080744 459.366315 377.055568 460.278584 378.640309 C 461.196066 380.22505 462.045779 383.337189 462.108334 383.519642 C 462.17089 383.702096 462.410686 383.827207 463.812973 386.079207 C 465.220473 388.33642 465.157918 389.618809 465.157918 389.618809 L 445.338232 389.618809 C 445.338232 389.618809 445.765694 387.606605 446.495509 386.449328 C 447.230537 385.286837 448.935176 384.859374 448.935176 384.859374 Z M 449.482537 384.009661 " stroke="#263238" stroke-width="1" stroke-opacity="1" stroke-miterlimit="10"/><path fill="#263238" d="M 342.707031 292.027344 C 342.707031 292.027344 342.296875 291.023438 342.25 290.886719 C 342.207031 290.75 342.207031 289.425781 342.070312 288.875 C 341.929688 288.328125 340.789062 286.636719 340.789062 286.636719 L 341.613281 284.261719 L 341.199219 283.941406 L 341.886719 282.25 L 341.503906 282.074219 C 340.601562 282.234375 336.8125 287.917969 336.8125 287.917969 L 336.402344 288.558594 C 336.402344 288.558594 335.125 288.875 334.574219 289.746094 C 334.105469 290.488281 333.804688 291.695312 333.726562 292.03125 L 342.707031 292.03125 Z M 342.707031 292.027344 " fill-opacity="1" fill-rule="nonzero"/><path stroke-linecap="butt" transform="matrix(0.749334, 0, 0, 0.749334, 0, 0.166514)" fill-opacity="1" fill="#ffffff" fill-rule="nonzero" stroke-linejoin="miter" d="M 628.224619 414.53156 C 628.224619 414.53156 632.082212 411.044088 635.392443 411.044088 C 638.702675 411.044088 648.81061 415.90257 648.81061 415.90257 C 648.81061 415.90257 652.85587 422.132061 653.220777 422.507394 C 653.590898 422.882727 658.553639 424.99919 658.923759 425.869755 C 659.288666 426.745533 660.023694 429.60745 660.023694 429.60745 L 629.1421 429.60745 L 623.444332 414.656671 Z M 628.224619 414.53156 " stroke="#263238" stroke-width="1" stroke-opacity="1" stroke-miterlimit="10"/><path fill="#263238" d="M 476.121094 308.175781 L 475.984375 310.378906 C 475.984375 310.378906 481.90625 313.824219 481.769531 315.0625 C 481.628906 316.300781 480.390625 319.195312 480.390625 319.195312 L 483.421875 322.363281 L 467.304688 322.363281 L 468.542969 312.859375 C 468.542969 312.859375 471.988281 307.898438 476.121094 308.175781 Z M 476.121094 308.175781 " fill-opacity="1" fill-rule="nonzero"/><path stroke-linecap="butt" transform="matrix(0.749334, 0, 0, 0.749334, 0, 0.166514)" fill-opacity="1" fill="#ffffff" fill-rule="nonzero" stroke-linejoin="miter" d="M 587.964904 412.696597 C 587.964904 412.696597 603.405701 389.535402 606.898386 389.165281 C 610.391072 388.800374 617.746563 391.740485 620.50422 396.520773 C 623.256665 401.30106 625.831869 410.673968 626.019535 411.226542 C 626.201989 411.779116 626.937017 412.144023 631.16473 418.94694 C 635.392443 425.749857 635.209989 429.60745 635.209989 429.60745 L 575.464218 429.60745 C 575.464218 429.60745 576.75182 423.544774 578.956904 420.052088 C 581.161987 416.559403 586.312395 415.271801 586.312395 415.271801 Z M 587.964904 412.696597 " stroke="#263238" stroke-width="1" stroke-opacity="1" stroke-miterlimit="10"/><path fill="#263238" d="M 458.351562 321.8125 C 458.351562 321.8125 457.113281 318.78125 456.972656 318.367188 C 456.835938 317.953125 456.835938 313.960938 456.421875 312.308594 C 456.011719 310.652344 452.566406 305.558594 452.566406 305.558594 L 455.046875 298.394531 L 453.804688 297.429688 L 455.871094 292.332031 L 454.714844 291.796875 C 452.003906 292.285156 440.582031 309.414062 440.582031 309.414062 L 439.34375 311.34375 C 439.34375 311.34375 435.484375 312.308594 433.832031 314.925781 C 432.417969 317.164062 431.511719 320.800781 431.277344 321.8125 Z M 458.351562 321.8125 " fill-opacity="1" fill-rule="nonzero"/></svg>