<svg xmlns="http://www.w3.org/2000/svg" xmlns:xlink="http://www.w3.org/1999/xlink" width="568" zoomAndPan="magnify" viewBox="0 0 426 334.49999" height="446" preserveAspectRatio="xMidYMid meet" version="1.0"><defs><g/><clipPath id="e18936f7e2"><path d="M 291.792969 97.316406 L 340.867188 97.316406 L 340.867188 134.636719 L 291.792969 134.636719 Z M 291.792969 97.316406 " clip-rule="nonzero"/></clipPath><clipPath id="8695c040ad"><path d="M 286.664062 100.628906 L 330 100.628906 L 330 138 L 286.664062 138 Z M 286.664062 100.628906 " clip-rule="nonzero"/></clipPath><clipPath id="a21d321aef"><path d="M 169.644531 199.363281 L 218.71875 199.363281 L 218.71875 236.683594 L 169.644531 236.683594 Z M 169.644531 199.363281 " clip-rule="nonzero"/></clipPath><clipPath id="81e86d627c"><path d="M 169.667969 202.675781 L 213 202.675781 L 213 240 L 169.667969 240 Z M 169.667969 202.675781 " clip-rule="nonzero"/></clipPath></defs><g fill="#222222" fill-opacity="1"><g transform="translate(85.251169, 147.638074)"><g><path d="M 77.40625 -61.46875 L 48.171875 -32.109375 L 80.28125 0 L 52.953125 0 L 28.390625 -24.5625 L 28.390625 0 L 7.1875 0 L 7.1875 -103.03125 L 28.390625 -103.03125 L 28.390625 -40.015625 L 49.84375 -61.46875 Z M 77.40625 -61.46875 "/></g></g></g><g fill="#222222" fill-opacity="1"><g transform="translate(152.460725, 147.638074)"><g><path d="M 27.203125 -61.46875 L 27.203125 -32.234375 C 27.203125 -26.160156 28.117188 -21.84375 29.953125 -19.28125 C 31.785156 -16.726562 34.898438 -15.453125 39.296875 -15.453125 C 43.691406 -15.453125 46.804688 -16.726562 48.640625 -19.28125 C 50.484375 -21.84375 51.40625 -26.160156 51.40625 -32.234375 L 51.40625 -61.46875 L 72.609375 -61.46875 L 72.609375 -27.078125 C 72.609375 -16.847656 69.953125 -9.476562 64.640625 -4.96875 C 59.328125 -0.457031 50.878906 1.796875 39.296875 1.796875 C 27.710938 1.796875 19.265625 -0.457031 13.953125 -4.96875 C 8.640625 -9.476562 5.984375 -16.847656 5.984375 -27.078125 L 5.984375 -61.46875 Z M 27.203125 -61.46875 "/></g></g></g><g fill="#222222" fill-opacity="1"><g transform="translate(220.868332, 147.638074)"><g><path d="M 7.1875 0 L 7.1875 -61.46875 L 28.390625 -61.46875 L 28.390625 -52.59375 L 28.640625 -52.59375 C 28.796875 -52.914062 29.050781 -53.316406 29.40625 -53.796875 C 29.769531 -54.273438 30.550781 -55.113281 31.75 -56.3125 C 32.945312 -57.507812 34.222656 -58.585938 35.578125 -59.546875 C 36.941406 -60.503906 38.703125 -61.363281 40.859375 -62.125 C 43.015625 -62.882812 45.210938 -63.265625 47.453125 -63.265625 C 49.765625 -63.265625 52.035156 -62.941406 54.265625 -62.296875 C 56.503906 -61.660156 58.144531 -61.023438 59.1875 -60.390625 L 60.859375 -59.421875 L 52 -41.453125 C 49.363281 -43.691406 45.6875 -44.8125 40.96875 -44.8125 C 38.414062 -44.8125 36.21875 -44.25 34.375 -43.125 C 32.539062 -42.007812 31.242188 -40.648438 30.484375 -39.046875 C 29.734375 -37.453125 29.195312 -36.097656 28.875 -34.984375 C 28.550781 -33.867188 28.390625 -32.988281 28.390625 -32.34375 L 28.390625 0 Z M 7.1875 0 "/></g></g></g><g fill="#222222" fill-opacity="1"><g transform="translate(270.346631, 147.638074)"><g><path d="M 11.375 -7.609375 C 5.625 -13.878906 2.75 -21.566406 2.75 -30.671875 C 2.75 -39.773438 5.625 -47.484375 11.375 -53.796875 C 17.132812 -60.109375 24.445312 -63.265625 33.3125 -63.265625 C 41.457031 -63.265625 48.164062 -60.707031 53.4375 -55.59375 L 53.4375 -61.46875 L 74.640625 -61.46875 L 74.640625 0 L 53.671875 0 L 53.671875 -6.953125 L 53.4375 -6.953125 C 48.164062 -1.117188 41.457031 1.796875 33.3125 1.796875 C 24.445312 1.796875 17.132812 -1.335938 11.375 -7.609375 Z M 29.40625 -41.09375 C 26.65625 -38.375 25.28125 -34.898438 25.28125 -30.671875 C 25.28125 -26.441406 26.597656 -22.988281 29.234375 -20.3125 C 31.867188 -17.632812 35.34375 -16.296875 39.65625 -16.296875 C 43.8125 -16.296875 47.226562 -17.648438 49.90625 -20.359375 C 52.582031 -23.078125 53.921875 -26.515625 53.921875 -30.671875 C 53.921875 -34.898438 52.539062 -38.375 49.78125 -41.09375 C 47.03125 -43.8125 43.65625 -45.171875 39.65625 -45.171875 C 35.582031 -45.171875 32.164062 -43.8125 29.40625 -41.09375 Z M 29.40625 -41.09375 "/></g></g></g><g clip-path="url(#e18936f7e2)"><path fill="#222222" d="M 291.792969 97.316406 L 340.917969 97.316406 L 340.917969 134.636719 L 291.792969 134.636719 Z M 291.792969 97.316406 " fill-opacity="1" fill-rule="nonzero"/></g><g clip-path="url(#8695c040ad)"><path fill="#fff1d8" d="M 316.753906 120.335938 C 315.285156 120.335938 314.097656 119.144531 314.097656 117.679688 C 314.097656 116.214844 315.285156 115.027344 316.753906 115.027344 C 318.21875 115.027344 319.40625 116.214844 319.40625 117.679688 C 319.40625 119.144531 318.21875 120.335938 316.753906 120.335938 Z M 307.90625 120.335938 C 306.441406 120.335938 305.253906 119.144531 305.253906 117.679688 C 305.253906 116.214844 306.441406 115.027344 307.90625 115.027344 C 309.371094 115.027344 310.558594 116.214844 310.558594 117.679688 C 310.558594 119.144531 309.371094 120.335938 307.90625 120.335938 Z M 299.058594 120.335938 C 297.59375 120.335938 296.40625 119.144531 296.40625 117.679688 C 296.40625 116.214844 297.59375 115.027344 299.058594 115.027344 C 300.527344 115.027344 301.714844 116.214844 301.714844 117.679688 C 301.714844 119.144531 300.527344 120.335938 299.058594 120.335938 Z M 308.601562 100.867188 C 296.703125 100.632812 286.910156 107.964844 286.726562 117.242188 C 286.664062 120.46875 287.773438 123.503906 289.742188 126.101562 C 293.128906 130.457031 289.429688 137.941406 289.429688 137.941406 L 300.351562 133.238281 C 302.703125 133.980469 305.261719 134.414062 307.941406 134.464844 C 319.835938 134.699219 329.628906 127.371094 329.8125 118.089844 C 329.996094 108.8125 320.5 101.101562 308.601562 100.867188 " fill-opacity="1" fill-rule="evenodd"/></g><g fill="#222222" fill-opacity="1"><g transform="translate(85.244722, 249.684248)"><g><path d="M 77.40625 -61.46875 L 48.171875 -32.109375 L 80.28125 0 L 52.953125 0 L 28.390625 -24.5625 L 28.390625 0 L 7.1875 0 L 7.1875 -103.03125 L 28.390625 -103.03125 L 28.390625 -40.015625 L 49.84375 -61.46875 Z M 77.40625 -61.46875 "/></g></g></g><g fill="#222222" fill-opacity="1"><g transform="translate(152.454278, 249.684248)"><g><path d="M 11.375 -7.609375 C 5.625 -13.878906 2.75 -21.566406 2.75 -30.671875 C 2.75 -39.773438 5.625 -47.484375 11.375 -53.796875 C 17.132812 -60.109375 24.445312 -63.265625 33.3125 -63.265625 C 41.457031 -63.265625 48.164062 -60.707031 53.4375 -55.59375 L 53.4375 -61.46875 L 74.640625 -61.46875 L 74.640625 0 L 53.671875 0 L 53.671875 -6.953125 L 53.4375 -6.953125 C 48.164062 -1.117188 41.457031 1.796875 33.3125 1.796875 C 24.445312 1.796875 17.132812 -1.335938 11.375 -7.609375 Z M 29.40625 -41.09375 C 26.65625 -38.375 25.28125 -34.898438 25.28125 -30.671875 C 25.28125 -26.441406 26.597656 -22.988281 29.234375 -20.3125 C 31.867188 -17.632812 35.34375 -16.296875 39.65625 -16.296875 C 43.8125 -16.296875 47.226562 -17.648438 49.90625 -20.359375 C 52.582031 -23.078125 53.921875 -26.515625 53.921875 -30.671875 C 53.921875 -34.898438 52.539062 -38.375 49.78125 -41.09375 C 47.03125 -43.8125 43.65625 -45.171875 39.65625 -45.171875 C 35.582031 -45.171875 32.164062 -43.8125 29.40625 -41.09375 Z M 29.40625 -41.09375 "/></g></g></g><g fill="#222222" fill-opacity="1"><g transform="translate(224.096638, 249.684248)"><g><path d="M 7.1875 0 L 7.1875 -61.46875 L 28.390625 -61.46875 L 28.390625 -55 L 28.640625 -55 C 34.148438 -60.507812 40.019531 -63.265625 46.25 -63.265625 C 49.28125 -63.265625 52.289062 -62.863281 55.28125 -62.0625 C 58.28125 -61.257812 61.15625 -60.019531 63.90625 -58.34375 C 66.664062 -56.664062 68.90625 -54.289062 70.625 -51.21875 C 72.34375 -48.144531 73.203125 -44.570312 73.203125 -40.5 L 73.203125 0 L 52 0 L 52 -34.75 C 52 -37.9375 50.976562 -40.726562 48.9375 -43.125 C 46.90625 -45.53125 44.25 -46.734375 40.96875 -46.734375 C 37.78125 -46.734375 34.882812 -45.492188 32.28125 -43.015625 C 29.6875 -40.535156 28.390625 -37.78125 28.390625 -34.75 L 28.390625 0 Z M 7.1875 0 "/></g></g></g><g fill="#222222" fill-opacity="1"><g transform="translate(293.103282, 249.684248)"><g><path d="M 9.21875 -95.71875 C 11.695312 -98.195312 14.65625 -99.4375 18.09375 -99.4375 C 21.53125 -99.4375 24.484375 -98.195312 26.953125 -95.71875 C 29.429688 -93.25 30.671875 -90.296875 30.671875 -86.859375 C 30.671875 -83.429688 29.429688 -80.476562 26.953125 -78 C 24.484375 -75.519531 21.53125 -74.28125 18.09375 -74.28125 C 14.65625 -74.28125 11.695312 -75.519531 9.21875 -78 C 6.75 -80.476562 5.515625 -83.429688 5.515625 -86.859375 C 5.515625 -90.296875 6.75 -93.25 9.21875 -95.71875 Z M 7.1875 -61.46875 L 7.1875 0 L 28.390625 0 L 28.390625 -61.46875 Z M 7.1875 -61.46875 "/></g></g></g><g clip-path="url(#a21d321aef)"><path fill="#222222" d="M 169.644531 199.363281 L 218.773438 199.363281 L 218.773438 236.683594 L 169.644531 236.683594 Z M 169.644531 199.363281 " fill-opacity="1" fill-rule="nonzero"/></g><g clip-path="url(#81e86d627c)"><path fill="#fff1d8" d="M 199.757812 222.378906 C 198.289062 222.378906 197.101562 221.191406 197.101562 219.726562 C 197.101562 218.261719 198.289062 217.074219 199.757812 217.074219 C 201.222656 217.074219 202.410156 218.261719 202.410156 219.726562 C 202.410156 221.191406 201.222656 222.378906 199.757812 222.378906 Z M 190.910156 222.378906 C 189.445312 222.378906 188.257812 221.191406 188.257812 219.726562 C 188.257812 218.261719 189.445312 217.074219 190.910156 217.074219 C 192.375 217.074219 193.5625 218.261719 193.5625 219.726562 C 193.5625 221.191406 192.375 222.378906 190.910156 222.378906 Z M 182.0625 222.378906 C 180.597656 222.378906 179.410156 221.191406 179.410156 219.726562 C 179.410156 218.261719 180.597656 217.074219 182.0625 217.074219 C 183.53125 217.074219 184.71875 218.261719 184.71875 219.726562 C 184.71875 221.191406 183.53125 222.378906 182.0625 222.378906 Z M 191.605469 202.914062 C 179.707031 202.679688 169.914062 210.007812 169.730469 219.289062 C 169.667969 222.511719 170.773438 225.550781 172.746094 228.148438 C 176.132812 232.5 172.433594 239.984375 172.433594 239.984375 L 183.355469 235.28125 C 185.707031 236.027344 188.265625 236.460938 190.941406 236.511719 C 202.839844 236.746094 212.632812 229.414062 212.816406 220.136719 C 213 210.859375 203.503906 203.148438 191.605469 202.914062 " fill-opacity="1" fill-rule="evenodd"/></g></svg>