<svg xmlns="http://www.w3.org/2000/svg" xmlns:xlink="http://www.w3.org/1999/xlink" width="635" zoomAndPan="magnify" viewBox="0 0 476.25 456.749982" height="609" preserveAspectRatio="xMidYMid meet" version="1.0"><defs><g/><clipPath id="ab426a6a44"><path d="M 339.414062 133.121094 L 406.28125 133.121094 L 406.28125 183.96875 L 339.414062 183.96875 Z M 339.414062 133.121094 " clip-rule="nonzero"/></clipPath><clipPath id="11c6d37963"><path d="M 172.980469 272.164062 L 239.84375 272.164062 L 239.84375 323.015625 L 172.980469 323.015625 Z M 172.980469 272.164062 " clip-rule="nonzero"/></clipPath><clipPath id="db9a4bf0bf"><path d="M 170 273.183594 L 223 273.183594 L 223 327 L 170 327 Z M 170 273.183594 " clip-rule="nonzero"/></clipPath><clipPath id="15c2f50ac4"><path d="M 331 134.140625 L 384 134.140625 L 384 188 L 331 188 Z M 331 134.140625 " clip-rule="nonzero"/></clipPath></defs><g fill="#1d3557" fill-opacity="1"><g transform="translate(57.96529, 203.713933)"><g><path d="M 105.46875 -83.75 L 65.640625 -43.75 L 109.390625 0 L 72.15625 0 L 38.6875 -33.46875 L 38.6875 0 L 9.796875 0 L 9.796875 -140.40625 L 38.6875 -140.40625 L 38.6875 -54.53125 L 67.921875 -83.75 Z M 105.46875 -83.75 "/></g></g></g><g fill="#1d3557" fill-opacity="1"><g transform="translate(149.556188, 203.713933)"><g><path d="M 37.0625 -83.75 L 37.0625 -43.921875 C 37.0625 -35.648438 38.3125 -29.769531 40.8125 -26.28125 C 43.320312 -22.800781 47.566406 -21.0625 53.546875 -21.0625 C 59.535156 -21.0625 63.78125 -22.800781 66.28125 -26.28125 C 68.789062 -29.769531 70.046875 -35.648438 70.046875 -43.921875 L 70.046875 -83.75 L 98.9375 -83.75 L 98.9375 -36.890625 C 98.9375 -22.960938 95.316406 -12.921875 88.078125 -6.765625 C 80.835938 -0.617188 69.328125 2.453125 53.546875 2.453125 C 37.765625 2.453125 26.253906 -0.617188 19.015625 -6.765625 C 11.773438 -12.921875 8.15625 -22.960938 8.15625 -36.890625 L 8.15625 -83.75 Z M 37.0625 -83.75 "/></g></g></g><g fill="#1d3557" fill-opacity="1"><g transform="translate(242.779718, 203.713933)"><g><path d="M 9.796875 0 L 9.796875 -83.75 L 38.6875 -83.75 L 38.6875 -71.671875 L 39.015625 -71.671875 C 39.234375 -72.109375 39.585938 -72.648438 40.078125 -73.296875 C 40.566406 -73.953125 41.628906 -75.097656 43.265625 -76.734375 C 44.898438 -78.367188 46.640625 -79.835938 48.484375 -81.140625 C 50.335938 -82.453125 52.734375 -83.625 55.671875 -84.65625 C 58.609375 -85.6875 61.601562 -86.203125 64.65625 -86.203125 C 67.8125 -86.203125 70.910156 -85.765625 73.953125 -84.890625 C 77.003906 -84.023438 79.238281 -83.15625 80.65625 -82.28125 L 82.9375 -80.984375 L 70.859375 -56.484375 C 67.265625 -59.535156 62.257812 -61.0625 55.84375 -61.0625 C 52.351562 -61.0625 49.359375 -60.296875 46.859375 -58.765625 C 44.359375 -57.242188 42.585938 -55.394531 41.546875 -53.21875 C 40.515625 -51.039062 39.78125 -49.191406 39.34375 -47.671875 C 38.90625 -46.148438 38.6875 -44.953125 38.6875 -44.078125 L 38.6875 0 Z M 9.796875 0 "/></g></g></g><g fill="#1d3557" fill-opacity="1"><g transform="translate(310.2075, 203.713933)"><g><path d="M 15.5 -10.359375 C 7.664062 -18.910156 3.75 -29.390625 3.75 -41.796875 C 3.75 -54.203125 7.664062 -64.703125 15.5 -73.296875 C 23.34375 -81.898438 33.304688 -86.203125 45.390625 -86.203125 C 56.492188 -86.203125 65.632812 -82.71875 72.8125 -75.75 L 72.8125 -83.75 L 101.71875 -83.75 L 101.71875 0 L 73.140625 0 L 73.140625 -9.46875 L 72.8125 -9.46875 C 65.632812 -1.519531 56.492188 2.453125 45.390625 2.453125 C 33.304688 2.453125 23.34375 -1.816406 15.5 -10.359375 Z M 40.078125 -56 C 36.328125 -52.300781 34.453125 -47.566406 34.453125 -41.796875 C 34.453125 -36.023438 36.242188 -31.316406 39.828125 -27.671875 C 43.421875 -24.023438 48.160156 -22.203125 54.046875 -22.203125 C 59.703125 -22.203125 64.351562 -24.050781 68 -27.75 C 71.644531 -31.457031 73.46875 -36.140625 73.46875 -41.796875 C 73.46875 -47.566406 71.585938 -52.300781 67.828125 -56 C 64.078125 -59.695312 59.484375 -61.546875 54.046875 -61.546875 C 48.492188 -61.546875 43.835938 -59.695312 40.078125 -56 Z M 40.078125 -56 "/></g></g></g><g clip-path="url(#ab426a6a44)"><path fill="#1d3557" d="M 339.414062 133.121094 L 406.351562 133.121094 L 406.351562 183.96875 L 339.414062 183.96875 Z M 339.414062 133.121094 " fill-opacity="1" fill-rule="nonzero"/></g><g fill="#1d3557" fill-opacity="1"><g transform="translate(57.960541, 340.729114)"><g><path d="M 105.453125 -83.75 L 65.625 -43.75 L 109.375 0 L 72.15625 0 L 38.6875 -33.46875 L 38.6875 0 L 9.796875 0 L 9.796875 -140.390625 L 38.6875 -140.390625 L 38.6875 -54.53125 L 67.90625 -83.75 Z M 105.453125 -83.75 "/></g></g></g><g fill="#1d3557" fill-opacity="1"><g transform="translate(149.53815, 340.729114)"><g><path d="M 15.5 -10.359375 C 7.664062 -18.910156 3.75 -29.390625 3.75 -41.796875 C 3.75 -54.203125 7.664062 -64.703125 15.5 -73.296875 C 23.34375 -81.898438 33.304688 -86.203125 45.390625 -86.203125 C 56.484375 -86.203125 65.625 -82.71875 72.8125 -75.75 L 72.8125 -83.75 L 101.703125 -83.75 L 101.703125 0 L 73.140625 0 L 73.140625 -9.46875 L 72.8125 -9.46875 C 65.625 -1.519531 56.484375 2.453125 45.390625 2.453125 C 33.304688 2.453125 23.34375 -1.816406 15.5 -10.359375 Z M 40.078125 -55.984375 C 36.328125 -52.285156 34.453125 -47.550781 34.453125 -41.78125 C 34.453125 -36.019531 36.242188 -31.316406 39.828125 -27.671875 C 43.421875 -24.023438 48.15625 -22.203125 54.03125 -22.203125 C 59.695312 -22.203125 64.351562 -24.050781 68 -27.75 C 71.644531 -31.445312 73.46875 -36.128906 73.46875 -41.796875 C 73.46875 -47.554688 71.585938 -52.285156 67.828125 -55.984375 C 64.078125 -59.691406 59.476562 -61.546875 54.03125 -61.546875 C 48.476562 -61.546875 43.828125 -59.691406 40.078125 -55.984375 Z M 40.078125 -55.984375 "/></g></g></g><g fill="#1d3557" fill-opacity="1"><g transform="translate(247.155755, 340.729114)"><g><path d="M 9.796875 0 L 9.796875 -83.75 L 38.6875 -83.75 L 38.6875 -74.9375 L 39.015625 -74.9375 C 46.523438 -82.445312 54.523438 -86.203125 63.015625 -86.203125 C 67.148438 -86.203125 71.257812 -85.65625 75.34375 -84.5625 C 79.425781 -83.476562 83.34375 -81.789062 87.09375 -79.5 C 90.84375 -77.21875 93.890625 -73.976562 96.234375 -69.78125 C 98.578125 -65.59375 99.75 -60.722656 99.75 -55.171875 L 99.75 0 L 70.84375 0 L 70.84375 -47.34375 C 70.84375 -51.695312 69.457031 -55.503906 66.6875 -58.765625 C 63.914062 -62.035156 60.296875 -63.671875 55.828125 -63.671875 C 51.472656 -63.671875 47.523438 -61.984375 43.984375 -58.609375 C 40.453125 -55.234375 38.6875 -51.476562 38.6875 -47.34375 L 38.6875 0 Z M 9.796875 0 "/></g></g></g><g fill="#1d3557" fill-opacity="1"><g transform="translate(341.182019, 340.729114)"><g><path d="M 12.5625 -130.4375 C 15.9375 -133.8125 19.960938 -135.5 24.640625 -135.5 C 29.328125 -135.5 33.359375 -133.8125 36.734375 -130.4375 C 40.109375 -127.0625 41.796875 -123.035156 41.796875 -118.359375 C 41.796875 -113.679688 40.109375 -109.65625 36.734375 -106.28125 C 33.359375 -102.90625 29.328125 -101.21875 24.640625 -101.21875 C 19.960938 -101.21875 15.9375 -102.90625 12.5625 -106.28125 C 9.195312 -109.65625 7.515625 -113.679688 7.515625 -118.359375 C 7.515625 -123.035156 9.195312 -127.0625 12.5625 -130.4375 Z M 9.796875 -83.75 L 9.796875 0 L 38.6875 0 L 38.6875 -83.75 Z M 9.796875 -83.75 "/></g></g></g><g clip-path="url(#11c6d37963)"><path fill="#1d3557" d="M 172.980469 272.164062 L 239.917969 272.164062 L 239.917969 323.015625 L 172.980469 323.015625 Z M 172.980469 272.164062 " fill-opacity="1" fill-rule="nonzero"/></g><g clip-path="url(#db9a4bf0bf)"><path fill="#f1faee" d="M 196.367188 273.933594 C 195.210938 273.933594 194.0625 274.007812 192.917969 274.15625 C 191.769531 274.308594 190.640625 274.535156 189.523438 274.835938 C 188.410156 275.136719 187.316406 275.507812 186.25 275.953125 C 185.183594 276.398438 184.152344 276.910156 183.15625 277.492188 C 182.15625 278.074219 181.199219 278.71875 180.289062 279.425781 C 179.375 280.132812 178.511719 280.898438 177.699219 281.722656 C 176.886719 282.542969 176.132812 283.414062 175.4375 284.335938 C 174.742188 285.257812 174.109375 286.222656 173.539062 287.230469 C 172.972656 288.234375 172.472656 289.273438 172.039062 290.34375 C 171.609375 291.417969 171.25 292.511719 170.960938 293.632812 C 170.675781 294.75 170.464844 295.886719 170.328125 297.03125 C 170.191406 298.179688 170.132812 299.332031 170.148438 300.484375 C 170.164062 301.640625 170.257812 302.789062 170.425781 303.933594 C 170.59375 305.078125 170.835938 306.203125 171.152344 307.316406 C 171.46875 308.425781 171.859375 309.511719 172.320312 310.570312 C 172.78125 311.628906 173.308594 312.65625 173.90625 313.644531 L 170.210938 324.734375 C 170.144531 324.921875 170.128906 325.117188 170.160156 325.316406 C 170.191406 325.515625 170.265625 325.695312 170.382812 325.859375 C 170.5 326.019531 170.648438 326.148438 170.824219 326.238281 C 171.003906 326.332031 171.195312 326.375 171.394531 326.375 C 171.53125 326.375 171.660156 326.355469 171.789062 326.3125 L 182.878906 322.617188 C 183.742188 323.132812 184.632812 323.601562 185.546875 324.015625 C 186.464844 324.433594 187.402344 324.796875 188.359375 325.101562 C 189.320312 325.410156 190.292969 325.664062 191.28125 325.859375 C 192.269531 326.054688 193.261719 326.191406 194.265625 326.273438 C 195.269531 326.355469 196.273438 326.378906 197.28125 326.34375 C 198.285156 326.308594 199.289062 326.214844 200.285156 326.066406 C 201.277344 325.914062 202.261719 325.710938 203.234375 325.445312 C 204.207031 325.183594 205.160156 324.863281 206.09375 324.492188 C 207.027344 324.117188 207.9375 323.691406 208.824219 323.214844 C 209.710938 322.734375 210.566406 322.207031 211.390625 321.632812 C 212.21875 321.054688 213.007812 320.433594 213.761719 319.765625 C 214.511719 319.097656 215.226562 318.390625 215.898438 317.640625 C 216.570312 316.890625 217.195312 316.105469 217.777344 315.28125 C 218.359375 314.460938 218.890625 313.605469 219.375 312.722656 C 219.855469 311.839844 220.289062 310.933594 220.667969 310 C 221.042969 309.066406 221.367188 308.117188 221.636719 307.144531 C 221.90625 306.175781 222.117188 305.191406 222.273438 304.199219 C 222.429688 303.203125 222.527344 302.203125 222.566406 301.199219 C 222.609375 300.191406 222.589844 299.1875 222.515625 298.183594 C 222.441406 297.179688 222.308594 296.183594 222.117188 295.195312 C 221.925781 294.207031 221.679688 293.230469 221.378906 292.269531 C 221.074219 291.3125 220.71875 290.371094 220.308594 289.453125 C 219.898438 288.53125 219.433594 287.640625 218.921875 286.773438 C 218.410156 285.910156 217.847656 285.074219 217.238281 284.273438 C 216.628906 283.472656 215.972656 282.710938 215.277344 281.984375 C 214.578125 281.257812 213.84375 280.574219 213.066406 279.933594 C 212.289062 279.292969 211.480469 278.699219 210.632812 278.148438 C 209.789062 277.601562 208.914062 277.105469 208.015625 276.660156 C 207.113281 276.210938 206.1875 275.816406 205.238281 275.476562 C 204.292969 275.136719 203.328125 274.851562 202.347656 274.621094 C 201.367188 274.394531 200.378906 274.222656 199.378906 274.105469 C 198.378906 273.992188 197.375 273.933594 196.367188 273.933594 Z M 196.367188 323.878906 C 194.125 323.878906 191.925781 323.5625 189.773438 322.9375 C 187.621094 322.308594 185.597656 321.394531 183.707031 320.191406 C 183.5 320.0625 183.277344 320 183.039062 320 C 182.902344 319.996094 182.769531 320.019531 182.640625 320.0625 L 173.367188 323.152344 L 176.460938 313.878906 C 176.582031 313.503906 176.539062 313.152344 176.332031 312.816406 C 175.867188 312.082031 175.445312 311.324219 175.066406 310.542969 C 174.683594 309.757812 174.347656 308.960938 174.054688 308.140625 C 173.761719 307.320312 173.515625 306.488281 173.316406 305.644531 C 173.117188 304.796875 172.960938 303.941406 172.855469 303.078125 C 172.75 302.214844 172.691406 301.351562 172.679688 300.480469 C 172.667969 299.613281 172.703125 298.746094 172.789062 297.878906 C 172.871094 297.015625 173.003906 296.15625 173.179688 295.304688 C 173.359375 294.453125 173.585938 293.613281 173.855469 292.789062 C 174.125 291.960938 174.441406 291.152344 174.800781 290.363281 C 175.160156 289.570312 175.5625 288.800781 176.007812 288.054688 C 176.453125 287.308594 176.9375 286.585938 177.460938 285.890625 C 177.984375 285.199219 178.542969 284.535156 179.140625 283.902344 C 179.738281 283.269531 180.367188 282.671875 181.027344 282.109375 C 181.691406 281.546875 182.382812 281.019531 183.101562 280.535156 C 183.824219 280.046875 184.566406 279.601562 185.335938 279.195312 C 186.105469 278.789062 186.894531 278.429688 187.703125 278.109375 C 188.511719 277.792969 189.335938 277.519531 190.175781 277.292969 C 191.015625 277.0625 191.863281 276.882812 192.722656 276.75 C 193.582031 276.613281 194.445312 276.527344 195.316406 276.488281 C 196.183594 276.449219 197.050781 276.457031 197.917969 276.515625 C 198.785156 276.570312 199.648438 276.675781 200.503906 276.824219 C 201.359375 276.976562 202.207031 277.175781 203.042969 277.417969 C 203.875 277.664062 204.695312 277.953125 205.496094 278.285156 C 206.300781 278.621094 207.082031 278.996094 207.84375 279.417969 C 208.605469 279.835938 209.339844 280.296875 210.050781 280.800781 C 210.761719 281.300781 211.441406 281.839844 212.09375 282.414062 C 212.742188 282.992188 213.359375 283.601562 213.945312 284.246094 C 214.53125 284.890625 215.078125 285.5625 215.585938 286.269531 C 216.097656 286.972656 216.566406 287.703125 216.996094 288.457031 C 217.425781 289.214844 217.8125 289.992188 218.15625 290.789062 C 218.5 291.589844 218.800781 292.402344 219.054688 293.234375 C 219.308594 294.066406 219.515625 294.910156 219.679688 295.761719 C 219.839844 296.617188 219.953125 297.476562 220.019531 298.34375 C 220.089844 299.210938 220.105469 300.078125 220.078125 300.949219 C 220.050781 301.816406 219.972656 302.683594 219.851562 303.542969 C 219.726562 304.402344 219.558594 305.253906 219.339844 306.097656 C 219.121094 306.9375 218.859375 307.765625 218.550781 308.578125 C 218.242188 309.390625 217.890625 310.183594 217.496094 310.960938 C 217.097656 311.734375 216.664062 312.484375 216.183594 313.210938 C 215.707031 313.9375 215.191406 314.632812 214.636719 315.304688 C 214.078125 315.972656 213.488281 316.609375 212.863281 317.214844 C 212.238281 317.816406 211.582031 318.386719 210.894531 318.917969 C 210.207031 319.449219 209.496094 319.945312 208.753906 320.398438 C 208.011719 320.851562 207.246094 321.261719 206.460938 321.632812 C 205.671875 322 204.867188 322.328125 204.042969 322.609375 C 203.222656 322.886719 202.386719 323.125 201.539062 323.3125 C 200.6875 323.5 199.832031 323.644531 198.96875 323.738281 C 198.105469 323.832031 197.238281 323.878906 196.367188 323.878906 Z M 186.378906 300.15625 C 186.378906 300.488281 186.316406 300.804688 186.1875 301.109375 C 186.0625 301.417969 185.882812 301.6875 185.648438 301.921875 C 185.414062 302.15625 185.144531 302.335938 184.835938 302.460938 C 184.53125 302.589844 184.210938 302.652344 183.882812 302.652344 C 183.550781 302.652344 183.230469 302.589844 182.925781 302.460938 C 182.621094 302.335938 182.347656 302.15625 182.113281 301.921875 C 181.882812 301.6875 181.699219 301.417969 181.574219 301.109375 C 181.445312 300.804688 181.382812 300.488281 181.382812 300.15625 C 181.382812 299.824219 181.445312 299.503906 181.574219 299.199219 C 181.699219 298.894531 181.882812 298.625 182.113281 298.390625 C 182.347656 298.15625 182.621094 297.976562 182.925781 297.847656 C 183.230469 297.722656 183.550781 297.65625 183.882812 297.65625 C 184.210938 297.65625 184.53125 297.722656 184.835938 297.847656 C 185.144531 297.976562 185.414062 298.15625 185.648438 298.390625 C 185.882812 298.625 186.0625 298.894531 186.1875 299.199219 C 186.316406 299.503906 186.378906 299.824219 186.378906 300.15625 Z M 198.863281 300.15625 C 198.863281 300.488281 198.800781 300.804688 198.675781 301.109375 C 198.546875 301.417969 198.367188 301.6875 198.132812 301.921875 C 197.898438 302.15625 197.628906 302.335938 197.324219 302.460938 C 197.015625 302.589844 196.699219 302.652344 196.367188 302.652344 C 196.035156 302.652344 195.71875 302.589844 195.410156 302.460938 C 195.105469 302.335938 194.835938 302.15625 194.601562 301.921875 C 194.367188 301.6875 194.1875 301.417969 194.058594 301.109375 C 193.933594 300.804688 193.871094 300.488281 193.871094 300.15625 C 193.871094 299.824219 193.933594 299.503906 194.058594 299.199219 C 194.1875 298.894531 194.367188 298.625 194.601562 298.390625 C 194.835938 298.15625 195.105469 297.976562 195.410156 297.847656 C 195.71875 297.722656 196.035156 297.65625 196.367188 297.65625 C 196.699219 297.65625 197.015625 297.722656 197.324219 297.847656 C 197.628906 297.976562 197.898438 298.15625 198.132812 298.390625 C 198.367188 298.625 198.546875 298.894531 198.675781 299.199219 C 198.800781 299.503906 198.863281 299.824219 198.863281 300.15625 Z M 211.351562 300.15625 C 211.351562 300.488281 211.289062 300.804688 211.160156 301.109375 C 211.035156 301.417969 210.855469 301.6875 210.621094 301.921875 C 210.386719 302.15625 210.117188 302.335938 209.808594 302.460938 C 209.503906 302.589844 209.183594 302.652344 208.855469 302.652344 C 208.523438 302.652344 208.203125 302.589844 207.898438 302.460938 C 207.59375 302.335938 207.320312 302.15625 207.089844 301.921875 C 206.855469 301.6875 206.671875 301.417969 206.546875 301.109375 C 206.421875 300.804688 206.355469 300.488281 206.355469 300.15625 C 206.355469 299.824219 206.421875 299.503906 206.546875 299.199219 C 206.671875 298.894531 206.855469 298.625 207.089844 298.390625 C 207.320312 298.15625 207.59375 297.976562 207.898438 297.847656 C 208.203125 297.722656 208.523438 297.65625 208.855469 297.65625 C 209.183594 297.65625 209.503906 297.722656 209.808594 297.847656 C 210.117188 297.976562 210.386719 298.15625 210.621094 298.390625 C 210.855469 298.625 211.035156 298.894531 211.160156 299.199219 C 211.289062 299.503906 211.351562 299.824219 211.351562 300.15625 Z M 211.351562 300.15625 " fill-opacity="1" fill-rule="nonzero"/></g><g clip-path="url(#15c2f50ac4)"><path fill="#f1faee" d="M 357.769531 134.890625 C 358.921875 134.886719 360.074219 134.960938 361.21875 135.113281 C 362.363281 135.265625 363.496094 135.488281 364.613281 135.789062 C 365.726562 136.089844 366.816406 136.464844 367.882812 136.90625 C 368.949219 137.351562 369.984375 137.867188 370.980469 138.449219 C 371.980469 139.027344 372.9375 139.671875 373.847656 140.382812 C 374.761719 141.089844 375.625 141.855469 376.4375 142.675781 C 377.246094 143.5 378 144.371094 378.699219 145.292969 C 379.394531 146.214844 380.027344 147.179688 380.597656 148.183594 C 381.164062 149.191406 381.664062 150.230469 382.097656 151.300781 C 382.527344 152.371094 382.886719 153.46875 383.171875 154.585938 C 383.460938 155.707031 383.671875 156.839844 383.808594 157.988281 C 383.941406 159.132812 384.003906 160.285156 383.988281 161.441406 C 383.972656 162.597656 383.878906 163.746094 383.710938 164.890625 C 383.542969 166.03125 383.300781 167.160156 382.984375 168.269531 C 382.664062 169.382812 382.277344 170.464844 381.816406 171.527344 C 381.355469 172.585938 380.824219 173.609375 380.230469 174.597656 L 383.925781 185.6875 C 383.988281 185.878906 384.007812 186.074219 383.976562 186.269531 C 383.945312 186.46875 383.871094 186.648438 383.753906 186.8125 C 383.636719 186.976562 383.488281 187.101562 383.308594 187.195312 C 383.132812 187.285156 382.941406 187.332031 382.742188 187.332031 C 382.605469 187.332031 382.472656 187.308594 382.347656 187.265625 L 371.257812 183.570312 C 370.394531 184.089844 369.503906 184.558594 368.585938 184.972656 C 367.671875 185.386719 366.734375 185.75 365.773438 186.058594 C 364.816406 186.367188 363.84375 186.617188 362.855469 186.8125 C 361.867188 187.007812 360.871094 187.148438 359.867188 187.230469 C 358.867188 187.308594 357.859375 187.332031 356.855469 187.296875 C 355.847656 187.261719 354.847656 187.171875 353.851562 187.019531 C 352.855469 186.871094 351.875 186.664062 350.902344 186.402344 C 349.929688 186.136719 348.976562 185.820312 348.042969 185.445312 C 347.105469 185.074219 346.195312 184.648438 345.308594 184.167969 C 344.425781 183.691406 343.570312 183.164062 342.742188 182.585938 C 341.917969 182.011719 341.128906 181.386719 340.375 180.71875 C 339.621094 180.054688 338.910156 179.34375 338.238281 178.59375 C 337.566406 177.84375 336.9375 177.058594 336.359375 176.238281 C 335.777344 175.414062 335.246094 174.5625 334.761719 173.679688 C 334.277344 172.796875 333.847656 171.886719 333.46875 170.953125 C 333.089844 170.023438 332.765625 169.070312 332.5 168.101562 C 332.230469 167.128906 332.015625 166.148438 331.863281 165.152344 C 331.707031 164.160156 331.609375 163.160156 331.566406 162.152344 C 331.527344 161.148438 331.546875 160.140625 331.621094 159.136719 C 331.695312 158.132812 331.828125 157.136719 332.019531 156.148438 C 332.207031 155.160156 332.457031 154.1875 332.757812 153.226562 C 333.058594 152.265625 333.417969 151.324219 333.828125 150.40625 C 334.238281 149.488281 334.699219 148.59375 335.214844 147.730469 C 335.726562 146.863281 336.289062 146.03125 336.898438 145.230469 C 337.507812 144.429688 338.160156 143.664062 338.859375 142.9375 C 339.558594 142.210938 340.292969 141.527344 341.070312 140.886719 C 341.847656 140.246094 342.65625 139.652344 343.5 139.105469 C 344.347656 138.558594 345.21875 138.0625 346.121094 137.613281 C 347.023438 137.167969 347.949219 136.773438 348.894531 136.433594 C 349.84375 136.09375 350.808594 135.808594 351.789062 135.578125 C 352.769531 135.347656 353.757812 135.175781 354.757812 135.0625 C 355.757812 134.945312 356.761719 134.886719 357.769531 134.890625 Z M 357.769531 184.835938 C 360.011719 184.832031 362.207031 184.519531 364.363281 183.890625 C 366.515625 183.265625 368.539062 182.351562 370.429688 181.148438 C 370.632812 181.019531 370.855469 180.953125 371.097656 180.953125 C 371.234375 180.953125 371.367188 180.976562 371.492188 181.019531 L 380.769531 184.109375 L 377.675781 174.835938 C 377.550781 174.460938 377.59375 174.105469 377.804688 173.773438 C 378.269531 173.035156 378.691406 172.277344 379.070312 171.496094 C 379.453125 170.714844 379.789062 169.914062 380.078125 169.09375 C 380.371094 168.277344 380.617188 167.445312 380.820312 166.597656 C 381.019531 165.753906 381.171875 164.898438 381.28125 164.035156 C 381.386719 163.171875 381.445312 162.304688 381.457031 161.4375 C 381.46875 160.566406 381.433594 159.699219 381.347656 158.835938 C 381.265625 157.96875 381.132812 157.109375 380.953125 156.261719 C 380.777344 155.410156 380.550781 154.570312 380.28125 153.746094 C 380.007812 152.917969 379.695312 152.109375 379.335938 151.316406 C 378.976562 150.527344 378.574219 149.757812 378.128906 149.007812 C 377.683594 148.261719 377.199219 147.542969 376.675781 146.847656 C 376.152344 146.152344 375.59375 145.488281 374.996094 144.859375 C 374.398438 144.226562 373.769531 143.628906 373.105469 143.0625 C 372.445312 142.5 371.753906 141.976562 371.035156 141.488281 C 370.3125 141.003906 369.566406 140.554688 368.800781 140.152344 C 368.03125 139.746094 367.242188 139.382812 366.429688 139.066406 C 365.621094 138.746094 364.796875 138.472656 363.960938 138.246094 C 363.121094 138.019531 362.269531 137.839844 361.410156 137.703125 C 360.554688 137.570312 359.6875 137.484375 358.820312 137.445312 C 357.953125 137.40625 357.085938 137.414062 356.214844 137.46875 C 355.347656 137.527344 354.488281 137.628906 353.628906 137.78125 C 352.773438 137.929688 351.929688 138.128906 351.09375 138.375 C 350.261719 138.617188 349.441406 138.90625 348.640625 139.242188 C 347.835938 139.574219 347.054688 139.953125 346.292969 140.371094 C 345.53125 140.792969 344.796875 141.253906 344.085938 141.753906 C 343.375 142.253906 342.695312 142.792969 342.042969 143.371094 C 341.390625 143.945312 340.773438 144.554688 340.191406 145.199219 C 339.605469 145.84375 339.058594 146.519531 338.550781 147.222656 C 338.039062 147.925781 337.570312 148.65625 337.140625 149.414062 C 336.710938 150.167969 336.324219 150.945312 335.980469 151.746094 C 335.636719 152.542969 335.335938 153.359375 335.082031 154.1875 C 334.828125 155.019531 334.621094 155.863281 334.457031 156.71875 C 334.296875 157.570312 334.183594 158.433594 334.113281 159.300781 C 334.046875 160.167969 334.027344 161.035156 334.058594 161.902344 C 334.085938 162.773438 334.160156 163.636719 334.285156 164.496094 C 334.410156 165.359375 334.578125 166.210938 334.796875 167.050781 C 335.011719 167.894531 335.277344 168.71875 335.585938 169.535156 C 335.894531 170.347656 336.246094 171.140625 336.640625 171.914062 C 337.035156 172.6875 337.472656 173.4375 337.953125 174.164062 C 338.429688 174.890625 338.945312 175.589844 339.5 176.257812 C 340.054688 176.925781 340.644531 177.5625 341.269531 178.167969 C 341.894531 178.773438 342.550781 179.339844 343.238281 179.875 C 343.925781 180.40625 344.640625 180.898438 345.382812 181.351562 C 346.125 181.804688 346.890625 182.21875 347.675781 182.585938 C 348.464844 182.957031 349.269531 183.28125 350.089844 183.5625 C 350.914062 183.84375 351.75 184.078125 352.597656 184.269531 C 353.445312 184.457031 354.304688 184.597656 355.167969 184.691406 C 356.03125 184.789062 356.898438 184.835938 357.769531 184.835938 Z M 367.757812 161.109375 C 367.757812 161.441406 367.820312 161.761719 367.949219 162.066406 C 368.074219 162.371094 368.253906 162.640625 368.488281 162.875 C 368.722656 163.109375 368.992188 163.289062 369.300781 163.417969 C 369.605469 163.542969 369.921875 163.609375 370.253906 163.609375 C 370.585938 163.609375 370.90625 163.542969 371.210938 163.417969 C 371.515625 163.289062 371.785156 163.109375 372.019531 162.875 C 372.253906 162.640625 372.433594 162.371094 372.5625 162.066406 C 372.6875 161.761719 372.753906 161.441406 372.753906 161.109375 C 372.753906 160.777344 372.6875 160.460938 372.5625 160.15625 C 372.433594 159.847656 372.253906 159.578125 372.019531 159.34375 C 371.785156 159.109375 371.515625 158.929688 371.210938 158.804688 C 370.90625 158.675781 370.585938 158.613281 370.253906 158.613281 C 369.921875 158.613281 369.605469 158.675781 369.300781 158.804688 C 368.992188 158.929688 368.722656 159.109375 368.488281 159.34375 C 368.253906 159.578125 368.074219 159.847656 367.949219 160.15625 C 367.820312 160.460938 367.757812 160.777344 367.757812 161.109375 Z M 355.269531 161.109375 C 355.269531 161.441406 355.335938 161.761719 355.460938 162.066406 C 355.585938 162.371094 355.769531 162.640625 356.003906 162.875 C 356.238281 163.109375 356.507812 163.289062 356.8125 163.417969 C 357.117188 163.542969 357.4375 163.609375 357.769531 163.609375 C 358.097656 163.609375 358.417969 163.542969 358.722656 163.417969 C 359.03125 163.289062 359.300781 163.109375 359.535156 162.875 C 359.769531 162.640625 359.949219 162.371094 360.074219 162.066406 C 360.203125 161.761719 360.265625 161.441406 360.265625 161.109375 C 360.265625 160.777344 360.203125 160.460938 360.074219 160.15625 C 359.949219 159.847656 359.769531 159.578125 359.535156 159.34375 C 359.300781 159.109375 359.03125 158.929688 358.722656 158.804688 C 358.417969 158.675781 358.097656 158.613281 357.769531 158.613281 C 357.4375 158.613281 357.117188 158.675781 356.8125 158.804688 C 356.507812 158.929688 356.238281 159.109375 356.003906 159.34375 C 355.769531 159.578125 355.585938 159.847656 355.460938 160.15625 C 355.335938 160.460938 355.269531 160.777344 355.269531 161.109375 Z M 342.785156 161.109375 C 342.785156 161.441406 342.847656 161.761719 342.976562 162.066406 C 343.101562 162.371094 343.28125 162.640625 343.515625 162.875 C 343.75 163.109375 344.019531 163.289062 344.328125 163.417969 C 344.632812 163.542969 344.949219 163.609375 345.28125 163.609375 C 345.613281 163.609375 345.929688 163.542969 346.238281 163.417969 C 346.542969 163.289062 346.8125 163.109375 347.046875 162.875 C 347.28125 162.640625 347.460938 162.371094 347.589844 162.066406 C 347.714844 161.761719 347.777344 161.441406 347.777344 161.109375 C 347.777344 160.777344 347.714844 160.460938 347.589844 160.15625 C 347.460938 159.847656 347.28125 159.578125 347.046875 159.34375 C 346.8125 159.109375 346.542969 158.929688 346.238281 158.804688 C 345.929688 158.675781 345.613281 158.613281 345.28125 158.613281 C 344.949219 158.613281 344.632812 158.675781 344.328125 158.804688 C 344.019531 158.929688 343.75 159.109375 343.515625 159.34375 C 343.28125 159.578125 343.101562 159.847656 342.976562 160.15625 C 342.847656 160.460938 342.785156 160.777344 342.785156 161.109375 Z M 342.785156 161.109375 " fill-opacity="1" fill-rule="nonzero"/></g></svg>