<svg xmlns="http://www.w3.org/2000/svg" xmlns:xlink="http://www.w3.org/1999/xlink" width="533" zoomAndPan="magnify" viewBox="0 0 399.75 153.000002" height="204" preserveAspectRatio="xMidYMid meet" version="1.0"><defs><g/><clipPath id="c30fa12aae"><path d="M 48.863281 67.738281 L 62.667969 67.738281 L 62.667969 77.671875 L 48.863281 77.671875 Z M 48.863281 67.738281 " clip-rule="nonzero"/></clipPath><clipPath id="666e4738d0"><path d="M 54.148438 14.929688 L 115.613281 14.929688 L 115.613281 70.734375 L 54.148438 70.734375 Z M 54.148438 14.929688 " clip-rule="nonzero"/></clipPath><clipPath id="c6e1bfa5b8"><path d="M 170.820312 66.453125 L 200.316406 66.453125 L 200.316406 88.886719 L 170.820312 88.886719 Z M 170.820312 66.453125 " clip-rule="nonzero"/></clipPath><clipPath id="8ed7164e0d"><path d="M 167.875 66.453125 L 193.871094 66.453125 L 193.871094 88.660156 L 167.875 88.660156 Z M 167.875 66.453125 " clip-rule="nonzero"/></clipPath><clipPath id="e56e93f2b7"><path d="M 261.402344 66.453125 L 290.898438 66.453125 L 290.898438 88.886719 L 261.402344 88.886719 Z M 261.402344 66.453125 " clip-rule="nonzero"/></clipPath><clipPath id="33544e9208"><path d="M 258.453125 66.453125 L 284.449219 66.453125 L 284.449219 88.660156 L 258.453125 88.660156 Z M 258.453125 66.453125 " clip-rule="nonzero"/></clipPath></defs><g clip-path="url(#c30fa12aae)"><path fill="#222222" d="M 48.863281 67.738281 L 62.675781 67.738281 L 62.675781 77.671875 L 48.863281 77.671875 Z M 48.863281 67.738281 " fill-opacity="1" fill-rule="nonzero"/></g><g clip-path="url(#666e4738d0)"><path fill="#222222" d="M 108.21875 14.933594 L 61.453125 14.933594 C 60.972656 14.933594 60.5 14.980469 60.027344 15.074219 C 59.558594 15.167969 59.101562 15.308594 58.660156 15.492188 C 58.214844 15.675781 57.792969 15.898438 57.394531 16.167969 C 56.996094 16.433594 56.628906 16.738281 56.289062 17.074219 C 55.949219 17.414062 55.648438 17.785156 55.378906 18.183594 C 55.113281 18.582031 54.890625 19 54.707031 19.445312 C 54.519531 19.886719 54.382812 20.34375 54.289062 20.816406 C 54.195312 21.285156 54.148438 21.761719 54.148438 22.238281 L 54.148438 69.003906 C 54.148438 69.300781 54.230469 69.570312 54.394531 69.816406 C 54.558594 70.0625 54.777344 70.242188 55.050781 70.355469 C 55.320312 70.464844 55.601562 70.496094 55.894531 70.4375 C 56.183594 70.378906 56.433594 70.246094 56.640625 70.035156 L 67.902344 58.773438 L 108.21875 58.773438 C 108.695312 58.773438 109.171875 58.726562 109.640625 58.632812 C 110.113281 58.539062 110.570312 58.398438 111.011719 58.214844 C 111.457031 58.03125 111.875 57.804688 112.273438 57.539062 C 112.671875 57.273438 113.042969 56.96875 113.382812 56.632812 C 113.722656 56.292969 114.023438 55.921875 114.289062 55.523438 C 114.558594 55.125 114.78125 54.707031 114.964844 54.261719 C 115.148438 53.820312 115.289062 53.363281 115.382812 52.890625 C 115.476562 52.421875 115.523438 51.945312 115.523438 51.46875 L 115.523438 22.238281 C 115.523438 21.761719 115.476562 21.285156 115.382812 20.816406 C 115.289062 20.34375 115.148438 19.886719 114.964844 19.445312 C 114.78125 19 114.558594 18.582031 114.289062 18.183594 C 114.023438 17.785156 113.722656 17.414062 113.382812 17.074219 C 113.042969 16.738281 112.671875 16.433594 112.273438 16.167969 C 111.875 15.902344 111.457031 15.675781 111.011719 15.492188 C 110.570312 15.308594 110.113281 15.167969 109.640625 15.074219 C 109.171875 14.980469 108.695312 14.933594 108.21875 14.933594 Z M 112.601562 51.46875 C 112.601562 51.753906 112.574219 52.039062 112.515625 52.320312 C 112.460938 52.605469 112.378906 52.878906 112.265625 53.144531 C 112.15625 53.410156 112.019531 53.664062 111.863281 53.902344 C 111.703125 54.140625 111.519531 54.363281 111.316406 54.566406 C 111.113281 54.769531 110.890625 54.949219 110.652344 55.109375 C 110.414062 55.269531 110.160156 55.40625 109.894531 55.515625 C 109.628906 55.625 109.355469 55.710938 109.074219 55.765625 C 108.789062 55.824219 108.503906 55.851562 108.21875 55.851562 L 67.300781 55.851562 C 66.894531 55.851562 66.550781 55.992188 66.265625 56.28125 L 57.070312 65.476562 L 57.070312 22.238281 C 57.070312 21.953125 57.097656 21.667969 57.15625 21.386719 C 57.210938 21.101562 57.292969 20.828125 57.40625 20.5625 C 57.515625 20.296875 57.648438 20.042969 57.808594 19.804688 C 57.96875 19.566406 58.152344 19.34375 58.355469 19.140625 C 58.558594 18.9375 58.78125 18.757812 59.019531 18.597656 C 59.257812 18.4375 59.511719 18.300781 59.777344 18.191406 C 60.042969 18.082031 60.316406 17.996094 60.597656 17.941406 C 60.878906 17.882812 61.164062 17.855469 61.453125 17.855469 L 108.21875 17.855469 C 108.503906 17.855469 108.789062 17.882812 109.074219 17.941406 C 109.355469 17.996094 109.628906 18.082031 109.894531 18.191406 C 110.160156 18.300781 110.414062 18.4375 110.652344 18.597656 C 110.890625 18.757812 111.113281 18.9375 111.316406 19.140625 C 111.519531 19.34375 111.703125 19.566406 111.863281 19.804688 C 112.019531 20.042969 112.15625 20.296875 112.265625 20.5625 C 112.378906 20.828125 112.460938 21.101562 112.515625 21.386719 C 112.574219 21.667969 112.601562 21.953125 112.601562 22.238281 Z M 103.832031 28.085938 C 103.832031 28.277344 103.796875 28.464844 103.722656 28.644531 C 103.648438 28.824219 103.542969 28.980469 103.40625 29.117188 C 103.269531 29.257812 103.109375 29.363281 102.929688 29.4375 C 102.753906 29.507812 102.566406 29.546875 102.371094 29.546875 L 67.300781 29.546875 C 67.105469 29.546875 66.917969 29.507812 66.738281 29.433594 C 66.5625 29.359375 66.402344 29.253906 66.265625 29.117188 C 66.128906 28.980469 66.023438 28.824219 65.949219 28.644531 C 65.875 28.464844 65.835938 28.277344 65.835938 28.085938 C 65.835938 27.890625 65.875 27.703125 65.949219 27.527344 C 66.023438 27.347656 66.128906 27.1875 66.265625 27.050781 C 66.402344 26.914062 66.5625 26.808594 66.738281 26.734375 C 66.917969 26.660156 67.105469 26.625 67.300781 26.625 L 102.371094 26.625 C 102.566406 26.625 102.753906 26.660156 102.929688 26.734375 C 103.109375 26.808594 103.269531 26.914062 103.40625 27.050781 C 103.542969 27.1875 103.648438 27.347656 103.722656 27.527344 C 103.796875 27.703125 103.832031 27.890625 103.832031 28.085938 Z M 103.832031 36.851562 C 103.832031 37.046875 103.796875 37.234375 103.722656 37.414062 C 103.648438 37.59375 103.542969 37.75 103.40625 37.886719 C 103.269531 38.023438 103.109375 38.128906 102.929688 38.203125 C 102.753906 38.277344 102.566406 38.316406 102.371094 38.316406 L 67.300781 38.316406 C 67.105469 38.316406 66.917969 38.277344 66.738281 38.203125 C 66.5625 38.128906 66.402344 38.023438 66.265625 37.886719 C 66.128906 37.75 66.023438 37.589844 65.949219 37.414062 C 65.875 37.234375 65.835938 37.046875 65.835938 36.851562 C 65.835938 36.660156 65.875 36.472656 65.949219 36.292969 C 66.023438 36.113281 66.128906 35.957031 66.265625 35.820312 C 66.402344 35.683594 66.5625 35.578125 66.738281 35.503906 C 66.917969 35.429688 67.105469 35.390625 67.300781 35.390625 L 102.371094 35.390625 C 102.566406 35.390625 102.753906 35.429688 102.929688 35.503906 C 103.109375 35.578125 103.269531 35.683594 103.40625 35.820312 C 103.542969 35.957031 103.648438 36.113281 103.722656 36.292969 C 103.796875 36.472656 103.832031 36.660156 103.832031 36.851562 Z M 103.832031 45.621094 C 103.832031 45.816406 103.796875 46.003906 103.722656 46.179688 C 103.648438 46.359375 103.542969 46.519531 103.40625 46.65625 C 103.269531 46.792969 103.109375 46.898438 102.929688 46.972656 C 102.753906 47.046875 102.566406 47.082031 102.371094 47.082031 L 67.300781 47.082031 C 67.105469 47.082031 66.917969 47.046875 66.738281 46.972656 C 66.5625 46.898438 66.402344 46.792969 66.265625 46.65625 C 66.128906 46.519531 66.023438 46.359375 65.949219 46.179688 C 65.875 46 65.835938 45.816406 65.835938 45.621094 C 65.835938 45.429688 65.875 45.242188 65.949219 45.0625 C 66.023438 44.882812 66.128906 44.726562 66.265625 44.589844 C 66.402344 44.453125 66.5625 44.347656 66.738281 44.273438 C 66.917969 44.199219 67.105469 44.160156 67.300781 44.160156 L 102.371094 44.160156 C 102.566406 44.160156 102.753906 44.195312 102.929688 44.269531 C 103.109375 44.34375 103.269531 44.449219 103.40625 44.589844 C 103.542969 44.726562 103.648438 44.882812 103.722656 45.0625 C 103.796875 45.242188 103.832031 45.429688 103.832031 45.621094 Z M 103.832031 45.621094 " fill-opacity="1" fill-rule="nonzero"/></g><g fill="#222222" fill-opacity="1"><g transform="translate(36.150076, 96.84299)"><g><path d="M 50.515625 -40.109375 L 31.4375 -20.953125 L 52.390625 0 L 34.5625 0 L 18.53125 -16.03125 L 18.53125 0 L 4.6875 0 L 4.6875 -67.234375 L 18.53125 -67.234375 L 18.53125 -26.109375 L 32.53125 -40.109375 Z M 50.515625 -40.109375 "/></g></g></g><g fill="#222222" fill-opacity="1"><g transform="translate(80.012942, 96.84299)"><g><path d="M 17.75 -40.109375 L 17.75 -21.03125 C 17.75 -17.070312 18.347656 -14.257812 19.546875 -12.59375 C 20.742188 -10.925781 22.773438 -10.09375 25.640625 -10.09375 C 28.515625 -10.09375 30.550781 -10.925781 31.75 -12.59375 C 32.945312 -14.257812 33.546875 -17.070312 33.546875 -21.03125 L 33.546875 -40.109375 L 47.375 -40.109375 L 47.375 -17.671875 C 47.375 -10.992188 45.640625 -6.179688 42.171875 -3.234375 C 38.710938 -0.296875 33.203125 1.171875 25.640625 1.171875 C 18.085938 1.171875 12.578125 -0.296875 9.109375 -3.234375 C 5.640625 -6.179688 3.90625 -10.992188 3.90625 -17.671875 L 3.90625 -40.109375 Z M 17.75 -40.109375 "/></g></g></g><g fill="#222222" fill-opacity="1"><g transform="translate(124.657689, 96.84299)"><g><path d="M 4.6875 0 L 4.6875 -40.109375 L 18.53125 -40.109375 L 18.53125 -34.328125 L 18.6875 -34.328125 C 18.789062 -34.535156 18.957031 -34.796875 19.1875 -35.109375 C 19.425781 -35.421875 19.9375 -35.96875 20.71875 -36.75 C 21.5 -37.53125 22.332031 -38.234375 23.21875 -38.859375 C 24.101562 -39.484375 25.25 -40.039062 26.65625 -40.53125 C 28.0625 -41.03125 29.5 -41.28125 30.96875 -41.28125 C 32.476562 -41.28125 33.960938 -41.070312 35.421875 -40.65625 C 36.878906 -40.238281 37.945312 -39.820312 38.625 -39.40625 L 39.71875 -38.78125 L 33.9375 -27.046875 C 32.21875 -28.503906 29.816406 -29.234375 26.734375 -29.234375 C 25.066406 -29.234375 23.632812 -28.867188 22.4375 -28.140625 C 21.238281 -27.410156 20.390625 -26.523438 19.890625 -25.484375 C 19.398438 -24.441406 19.050781 -23.554688 18.84375 -22.828125 C 18.632812 -22.097656 18.53125 -21.523438 18.53125 -21.109375 L 18.53125 0 Z M 4.6875 0 "/></g></g></g><g fill="#222222" fill-opacity="1"><g transform="translate(156.948632, 96.84299)"><g><path d="M 7.421875 -4.96875 C 3.671875 -9.0625 1.796875 -14.078125 1.796875 -20.015625 C 1.796875 -25.953125 3.671875 -30.976562 7.421875 -35.09375 C 11.179688 -39.21875 15.953125 -41.28125 21.734375 -41.28125 C 27.054688 -41.28125 31.4375 -39.613281 34.875 -36.28125 L 34.875 -40.109375 L 48.703125 -40.109375 L 48.703125 0 L 35.03125 0 L 35.03125 -4.53125 L 34.875 -4.53125 C 31.4375 -0.726562 27.054688 1.171875 21.734375 1.171875 C 15.953125 1.171875 11.179688 -0.875 7.421875 -4.96875 Z M 19.1875 -26.8125 C 17.394531 -25.039062 16.5 -22.773438 16.5 -20.015625 C 16.5 -17.253906 17.359375 -15 19.078125 -13.25 C 20.796875 -11.507812 23.0625 -10.640625 25.875 -10.640625 C 28.59375 -10.640625 30.820312 -11.523438 32.5625 -13.296875 C 34.3125 -15.066406 35.1875 -17.304688 35.1875 -20.015625 C 35.1875 -22.773438 34.285156 -25.039062 32.484375 -26.8125 C 30.691406 -28.59375 28.488281 -29.484375 25.875 -29.484375 C 23.21875 -29.484375 20.988281 -28.59375 19.1875 -26.8125 Z M 19.1875 -26.8125 "/></g></g></g><g fill="#222222" fill-opacity="1"><g transform="translate(203.704468, 96.84299)"><g><path d="M 50.515625 -40.109375 L 31.4375 -20.953125 L 52.390625 0 L 34.5625 0 L 18.53125 -16.03125 L 18.53125 0 L 4.6875 0 L 4.6875 -67.234375 L 18.53125 -67.234375 L 18.53125 -26.109375 L 32.53125 -40.109375 Z M 50.515625 -40.109375 "/></g></g></g><g fill="#222222" fill-opacity="1"><g transform="translate(247.567343, 96.84299)"><g><path d="M 7.421875 -4.96875 C 3.671875 -9.0625 1.796875 -14.078125 1.796875 -20.015625 C 1.796875 -25.953125 3.671875 -30.976562 7.421875 -35.09375 C 11.179688 -39.21875 15.953125 -41.28125 21.734375 -41.28125 C 27.054688 -41.28125 31.4375 -39.613281 34.875 -36.28125 L 34.875 -40.109375 L 48.703125 -40.109375 L 48.703125 0 L 35.03125 0 L 35.03125 -4.53125 L 34.875 -4.53125 C 31.4375 -0.726562 27.054688 1.171875 21.734375 1.171875 C 15.953125 1.171875 11.179688 -0.875 7.421875 -4.96875 Z M 19.1875 -26.8125 C 17.394531 -25.039062 16.5 -22.773438 16.5 -20.015625 C 16.5 -17.253906 17.359375 -15 19.078125 -13.25 C 20.796875 -11.507812 23.0625 -10.640625 25.875 -10.640625 C 28.59375 -10.640625 30.820312 -11.523438 32.5625 -13.296875 C 34.3125 -15.066406 35.1875 -17.304688 35.1875 -20.015625 C 35.1875 -22.773438 34.285156 -25.039062 32.484375 -26.8125 C 30.691406 -28.59375 28.488281 -29.484375 25.875 -29.484375 C 23.21875 -29.484375 20.988281 -28.59375 19.1875 -26.8125 Z M 19.1875 -26.8125 "/></g></g></g><g fill="#222222" fill-opacity="1"><g transform="translate(294.323179, 96.84299)"><g><path d="M 4.6875 0 L 4.6875 -40.109375 L 18.53125 -40.109375 L 18.53125 -35.890625 L 18.6875 -35.890625 C 22.28125 -39.484375 26.113281 -41.28125 30.1875 -41.28125 C 32.164062 -41.28125 34.128906 -41.019531 36.078125 -40.5 C 38.035156 -39.976562 39.910156 -39.171875 41.703125 -38.078125 C 43.503906 -36.984375 44.960938 -35.429688 46.078125 -33.421875 C 47.203125 -31.421875 47.765625 -29.085938 47.765625 -26.421875 L 47.765625 0 L 33.9375 0 L 33.9375 -22.671875 C 33.9375 -24.753906 33.269531 -26.578125 31.9375 -28.140625 C 30.613281 -29.710938 28.878906 -30.5 26.734375 -30.5 C 24.648438 -30.5 22.757812 -29.6875 21.0625 -28.0625 C 19.375 -26.445312 18.53125 -24.648438 18.53125 -22.671875 L 18.53125 0 Z M 4.6875 0 "/></g></g></g><g fill="#222222" fill-opacity="1"><g transform="translate(339.358869, 96.84299)"><g><path d="M 6.015625 -62.46875 C 7.628906 -64.082031 9.554688 -64.890625 11.796875 -64.890625 C 14.046875 -64.890625 15.976562 -64.082031 17.59375 -62.46875 C 19.207031 -60.851562 20.015625 -58.925781 20.015625 -56.6875 C 20.015625 -54.445312 19.207031 -52.515625 17.59375 -50.890625 C 15.976562 -49.273438 14.046875 -48.46875 11.796875 -48.46875 C 9.554688 -48.46875 7.628906 -49.273438 6.015625 -50.890625 C 4.398438 -52.515625 3.59375 -54.445312 3.59375 -56.6875 C 3.59375 -58.925781 4.398438 -60.851562 6.015625 -62.46875 Z M 4.6875 -40.109375 L 4.6875 0 L 18.53125 0 L 18.53125 -40.109375 Z M 4.6875 -40.109375 "/></g></g></g><g clip-path="url(#c6e1bfa5b8)"><path fill="#222222" d="M 170.820312 66.453125 L 200.351562 66.453125 L 200.351562 88.886719 L 170.820312 88.886719 Z M 170.820312 66.453125 " fill-opacity="1" fill-rule="nonzero"/></g><g clip-path="url(#8ed7164e0d)"><path fill="#edede9" d="M 185.953125 78.296875 C 185.074219 78.296875 184.359375 77.582031 184.359375 76.703125 C 184.359375 75.820312 185.074219 75.105469 185.953125 75.105469 C 186.835938 75.105469 187.550781 75.820312 187.550781 76.703125 C 187.550781 77.582031 186.835938 78.296875 185.953125 78.296875 Z M 180.636719 78.296875 C 179.757812 78.296875 179.042969 77.582031 179.042969 76.703125 C 179.042969 75.820312 179.757812 75.105469 180.636719 75.105469 C 181.519531 75.105469 182.234375 75.820312 182.234375 76.703125 C 182.234375 77.582031 181.519531 78.296875 180.636719 78.296875 Z M 175.320312 78.296875 C 174.441406 78.296875 173.726562 77.582031 173.726562 76.703125 C 173.726562 75.820312 174.441406 75.105469 175.320312 75.105469 C 176.203125 75.105469 176.917969 75.820312 176.917969 76.703125 C 176.917969 77.582031 176.203125 78.296875 175.320312 78.296875 Z M 181.054688 66.597656 C 173.90625 66.457031 168.019531 70.863281 167.910156 76.4375 C 167.871094 78.375 168.539062 80.203125 169.722656 81.761719 C 171.757812 84.378906 169.535156 88.875 169.535156 88.875 L 176.097656 86.050781 C 177.511719 86.496094 179.046875 86.757812 180.65625 86.789062 C 187.808594 86.929688 193.691406 82.523438 193.804688 76.949219 C 193.914062 71.371094 188.207031 66.738281 181.054688 66.597656 " fill-opacity="1" fill-rule="evenodd"/></g><g clip-path="url(#e56e93f2b7)"><path fill="#222222" d="M 261.402344 66.453125 L 290.929688 66.453125 L 290.929688 88.886719 L 261.402344 88.886719 Z M 261.402344 66.453125 " fill-opacity="1" fill-rule="nonzero"/></g><g clip-path="url(#33544e9208)"><path fill="#edede9" d="M 276.535156 78.296875 C 275.65625 78.296875 274.941406 77.582031 274.941406 76.703125 C 274.941406 75.820312 275.65625 75.105469 276.535156 75.105469 C 277.417969 75.105469 278.128906 75.820312 278.128906 76.703125 C 278.128906 77.582031 277.417969 78.296875 276.535156 78.296875 Z M 271.21875 78.296875 C 270.339844 78.296875 269.625 77.582031 269.625 76.703125 C 269.625 75.820312 270.339844 75.105469 271.21875 75.105469 C 272.101562 75.105469 272.8125 75.820312 272.8125 76.703125 C 272.8125 77.582031 272.101562 78.296875 271.21875 78.296875 Z M 265.902344 78.296875 C 265.023438 78.296875 264.308594 77.582031 264.308594 76.703125 C 264.308594 75.820312 265.023438 75.105469 265.902344 75.105469 C 266.785156 75.105469 267.5 75.820312 267.5 76.703125 C 267.5 77.582031 266.785156 78.296875 265.902344 78.296875 Z M 271.636719 66.597656 C 264.488281 66.457031 258.601562 70.863281 258.492188 76.4375 C 258.453125 78.375 259.121094 80.203125 260.304688 81.761719 C 262.339844 84.378906 260.117188 88.875 260.117188 88.875 L 266.679688 86.050781 C 268.09375 86.496094 269.628906 86.757812 271.238281 86.789062 C 278.390625 86.929688 284.273438 82.523438 284.382812 76.949219 C 284.492188 71.371094 278.785156 66.738281 271.636719 66.597656 " fill-opacity="1" fill-rule="evenodd"/></g></svg>